<svg xmlns="http://www.w3.org/2000/svg" xmlns:xlink="http://www.w3.org/1999/xlink" version="1.1" x="0px" y="0px" viewBox="0 0 100 100" style="enable-background:new 0 0 100 100;" xml:space="preserve"><g><path d="M4.868,59.928V25.939h64.694v8.313h4.867v-9.699c0-1.27-1.011-2.299-2.26-2.299H2.26c-1.248,0-2.26,1.03-2.26,2.299v41.231   c0,1.271,1.012,2.3,2.26,2.3h29.499v4.778c-10.387,0.259-18.115,1.239-18.115,2.408c0,1.368,10.554,2.476,23.572,2.476   s23.572-1.107,23.572-2.476c0-1.169-7.729-2.149-18.115-2.408v-4.778h4.591v-8.156H4.868z M36.783,61.771   c0-0.233,0.188-0.421,0.421-0.421c0.232,0,0.42,0.188,0.42,0.421v2.219c0,0.232-0.188,0.421-0.42,0.421   c-0.232,0-0.421-0.188-0.421-0.421V61.771z M37.215,66.367c-1.14,0-2.068-0.928-2.068-2.068c0-0.783,0.435-1.49,1.134-1.845   l0.101-0.052v0.777l-0.027,0.021c-0.34,0.266-0.536,0.666-0.536,1.098c0,0.77,0.626,1.396,1.395,1.396s1.395-0.626,1.395-1.396   c0-0.432-0.195-0.832-0.536-1.098l-0.026-0.021v-0.777l0.101,0.052c0.699,0.354,1.134,1.062,1.134,1.845   C39.283,65.439,38.355,66.367,37.215,66.367z M83.676,44.542H65.728c-0.681,0-1.232,0.552-1.232,1.232v30.739   c0,0.681,0.552,1.232,1.232,1.232h17.948c0.681,0,1.232-0.552,1.232-1.232V45.774C84.908,45.094,84.356,44.542,83.676,44.542z    M72.061,47.645c0-0.681,0.553-1.233,1.232-1.233h2.817c0.681,0,1.232,0.552,1.232,1.233v0.087h-5.282V47.645z M74.701,76.408   c-0.886,0-1.604-0.719-1.604-1.604c0-0.887,0.718-1.604,1.604-1.604c0.887,0,1.604,0.717,1.604,1.604   C76.305,75.689,75.588,76.408,74.701,76.408z M83.21,71.41H66.193V49.646H83.21V71.41z M98.121,35.687h-46.84   c-1.037,0-1.878,0.841-1.878,1.878v29.127c0,1.038,0.841,1.879,1.878,1.879h11.105v-2.885h-6.346V38.571h37.421v27.116h-6.445   v2.885h11.104c1.037,0,1.879-0.841,1.879-1.879V37.565C100,36.527,99.158,35.687,98.121,35.687z M96.999,53.963   c-1.013,0-1.833-0.821-1.833-1.834s0.82-1.833,1.833-1.833c1.012,0,1.833,0.82,1.833,1.833S98.011,53.963,96.999,53.963z"/></g></svg>