<svg xmlns="http://www.w3.org/2000/svg" xmlns:xlink="http://www.w3.org/1999/xlink" version="1.1" x="0px" y="0px" viewBox="0 0 48 60" enable-background="false" xml:space="preserve"><g><path d="M46.32,44.64H3.36V1.68C3.36,0.754,2.606,0,1.68,0S0,0.754,0,1.68v44.639C0,47.246,0.754,48,1.68,48h44.64   c0.926,0,1.68-0.754,1.68-1.681C48,45.394,47.246,44.64,46.32,44.64z"/><path d="M4.457,41.706c0.086,0.862,0.805,1.512,1.67,1.512c0.055,0,0.112-0.002,0.169-0.008c4.719-0.474,9.025-1.539,12.807-3.169   c3.704,2.108,8.061,3.177,12.957,3.177c1.682,0,3.454-0.127,5.268-0.375c0.918-0.127,1.563-0.977,1.436-1.894   c-0.113-0.827-0.828-1.451-1.663-1.451c-0.075,0-0.151,0.005-0.229,0.015c-1.653,0.229-3.264,0.344-4.787,0.344   c-3.41,0-6.51-0.576-9.234-1.716c15.487-9.142,15.164-26.645,15.158-26.824c-0.023-0.9-0.759-1.632-1.722-1.632   c-0.001,0-0.003,0-0.005,0c-0.449,0.013-0.865,0.199-1.174,0.525c-0.308,0.326-0.471,0.753-0.457,1.201   c0.02,0.703,0.303,17.176-15.264,24.841c-0.65-0.445-1.258-0.917-1.813-1.405c-9.283-8.179-9.252-23.822-9.251-23.98   c0.009-0.926-0.736-1.687-1.68-1.697c-0.916,0-1.669,0.745-1.68,1.661c-0.007,0.703-0.067,17.316,10.383,26.53   c0.145,0.128,0.295,0.257,0.456,0.389c-2.984,1.049-6.288,1.761-9.842,2.117C5.039,39.959,4.364,40.784,4.457,41.706z"/></g></svg>