<svg xmlns="http://www.w3.org/2000/svg" xmlns:xlink="http://www.w3.org/1999/xlink" version="1.1" x="0px" y="0px" viewBox="0 0 100 100" enable-background="new 0 0 100 100" fill="#ffffff" xml:space="preserve"><path d="M25.337,40.993h33.75c0.828,0,1.5-0.671,1.5-1.5c0-0.828-0.672-1.5-1.5-1.5h-33.75c-0.829,0-1.5,0.672-1.5,1.5  C23.837,40.322,24.509,40.993,25.337,40.993z M25.337,32.551h33.75c0.828,0,1.5-0.671,1.5-1.5c0-0.828-0.672-1.5-1.5-1.5h-33.75  c-0.829,0-1.5,0.672-1.5,1.5C23.837,31.88,24.509,32.551,25.337,32.551z M25.337,48.561h27.75c0.828,0,1.5-0.671,1.5-1.5  c0-0.828-0.672-1.5-1.5-1.5h-27.75c-0.829,0-1.5,0.672-1.5,1.5C23.837,47.89,24.509,48.561,25.337,48.561z M43.087,53.129h-17.75  c-0.829,0-1.5,0.672-1.5,1.5s0.671,1.5,1.5,1.5h17.75c0.829,0,1.5-0.672,1.5-1.5S43.916,53.129,43.087,53.129z M38.134,60.695  H25.337c-0.829,0-1.5,0.672-1.5,1.5s0.671,1.5,1.5,1.5h12.797c0.829,0,1.5-0.672,1.5-1.5S38.963,60.695,38.134,60.695z   M71.678,62.67L61.287,74.915l-6.639-5.282c-0.646-0.516-1.592-0.409-2.107,0.24c-0.516,0.647-0.408,1.592,0.24,2.107l7.775,6.188  c0.275,0.22,0.605,0.326,0.934,0.326c0.426,0,0.848-0.181,1.145-0.529l11.33-13.354c0.535-0.632,0.459-1.578-0.174-2.114  C73.158,61.96,72.213,62.038,71.678,62.67z M68.631,50.103V24.454c0-0.396-0.156-0.775-0.436-1.057L54.111,9.189  c-0.281-0.284-0.664-0.444-1.064-0.444H17.294c-0.829,0-1.5,0.672-1.5,1.5v68.757c0,0.828,0.671,1.5,1.5,1.5h27.697  c3.584,6.406,10.429,10.753,18.278,10.753c11.545,0,20.936-9.392,20.936-20.937C84.205,60.629,77.582,52.48,68.631,50.103z   M54.547,13.89l8.984,9.064h-8.984V13.89z M43.628,77.502H18.794V11.745h32.752v12.709c0,0.828,0.672,1.5,1.5,1.5h12.584v23.569  c-0.777-0.088-1.563-0.143-2.361-0.143c-11.545,0-20.938,9.393-20.938,20.938C42.332,72.845,42.804,75.258,43.628,77.502z   M63.27,88.255c-9.891,0-17.938-8.046-17.938-17.937s8.047-17.938,17.938-17.938s17.936,8.047,17.936,17.938  S73.16,88.255,63.27,88.255z"/></svg>