<svg xmlns="http://www.w3.org/2000/svg" xmlns:xlink="http://www.w3.org/1999/xlink" version="1.1" x="0px" y="0px" viewBox="0 0 100 100" enable-background="new 0 0 100 100" xml:space="preserve"><path d="M51.171,7.104c-23.804,0-43.166,19.364-43.166,43.168c0,23.81,19.362,43.166,43.166,43.166s43.168-19.356,43.168-43.166  C94.339,26.468,74.975,7.104,51.171,7.104z M51.171,88.438c-21.045,0-38.166-17.114-38.166-38.166  c0-21.046,17.121-38.168,38.166-38.168s38.168,17.122,38.168,38.168C89.339,71.318,72.216,88.438,51.171,88.438z M62.736,52.804  c-1.021-1.053-2.28-1.982-3.772-2.807c-1.493-0.818-3.548-1.709-6.167-2.67c-2.617-0.961-4.473-1.979-5.566-3.052  c-1.095-1.075-1.641-2.5-1.641-4.28c0-1.982,0.552-3.506,1.655-4.57c1.103-1.063,2.639-1.596,4.603-1.596  c1.983,0,3.553,0.742,4.709,2.225c1.154,1.481,1.732,3.52,1.732,6.09h7.425c0-4.008-0.973-7.266-2.915-9.771  c-1.941-2.505-4.693-4.014-8.252-4.525V21.1h-4.908v6.688c-3.539,0.407-6.34,1.707-8.404,3.896c-2.067,2.189-3.1,4.979-3.1,8.373  c0,5.019,2.383,8.797,7.148,11.354c1.43,0.771,3.436,1.621,6.012,2.53c2.577,0.903,4.417,1.935,5.521,3.063  c1.104,1.135,1.656,2.572,1.656,4.313c0,1.854-0.609,3.354-1.824,4.479c-1.219,1.123-2.99,1.688-5.322,1.688  c-2.372,0-4.208-0.707-5.507-2.118c-1.3-1.41-1.948-3.402-1.948-5.979h-7.453c0,4.05,1.088,7.308,3.267,9.754  c2.178,2.455,5.293,3.908,9.342,4.357v5.951h4.877v-5.982c3.783-0.389,6.734-1.655,8.851-3.805c2.117-2.146,3.177-4.947,3.177-8.404  c0-1.84-0.274-3.438-0.83-4.813C64.546,55.068,63.76,53.854,62.736,52.804z"/></svg>