<svg xmlns="http://www.w3.org/2000/svg" xmlns:xlink="http://www.w3.org/1999/xlink" version="1.1" x="0px" y="0px" viewBox="0 0 32 40" enable-background="new 0 0 32 32" xml:space="preserve"><g display="none"><rect x="-294.005" y="-132.234" display="inline" fill="#000000" width="411.25" height="211.25"/></g><g display="none"><g display="inline"><polyline fill="#000000" stroke="#414753" stroke-miterlimit="10" points="2.061,14.076 9.229,6.907 20.495,13.052 29.712,5.883       "/><circle fill="#000000" cx="29.932" cy="5.883" r="2.079"/><circle fill="#000000" cx="2.061" cy="14.62" r="2.079"/><circle fill="#000000" cx="9.069" cy="6.969" r="2.079"/><circle fill="#000000" cx="20.495" cy="12.922" r="2.079"/></g><g display="inline"><g><line fill="#000000" stroke="#414753" stroke-miterlimit="10" x1="3.339" y1="21.963" x2="28.661" y2="21.963"/><line fill="#000000" stroke="#414753" stroke-miterlimit="10" x1="9.998" y1="25.972" x2="22.002" y2="25.972"/></g></g></g><g><path d="M29.932,3.803c-1.148,0-2.079,0.931-2.079,2.079c0,0.25,0.051,0.487,0.132,0.71l-6.13,4.768   c-0.365-0.319-0.837-0.518-1.36-0.518c-0.648,0-1.219,0.302-1.6,0.767l-7.786-4.247c0.024-0.128,0.04-0.259,0.04-0.393   c0-1.148-0.931-2.079-2.079-2.079S6.989,5.821,6.989,6.969c0,0.418,0.126,0.806,0.339,1.132L2.76,12.67   C2.54,12.591,2.307,12.54,2.061,12.54c-1.148,0-2.079,0.931-2.079,2.079c0,1.148,0.931,2.079,2.079,2.079S4.14,15.768,4.14,14.62   c0-0.533-0.206-1.013-0.535-1.381l4.459-4.459c0.299,0.166,0.638,0.269,1.005,0.269c0.654,0,1.23-0.308,1.612-0.78l7.777,4.242   c-0.027,0.133-0.042,0.271-0.042,0.412c0,1.148,0.931,2.079,2.079,2.079s2.079-0.931,2.079-2.079c0-0.263-0.054-0.512-0.143-0.743   l6.115-4.756c0.368,0.332,0.851,0.54,1.386,0.54c1.148,0,2.079-0.931,2.079-2.079S31.081,3.803,29.932,3.803z"/><rect x="3.339" y="21.463" width="25.323" height="2.505"/><rect x="9.998" y="25.473" width="12.005" height="2.505"/></g><text x="0" y="47" fill="#000000" font-size="5px" font-weight="bold" font-family="'Helvetica Neue', Helvetica, Arial-Unicode, Arial, Sans-serif">Created by AlfredoCreates.com/Icons</text><text x="0" y="52" fill="#000000" font-size="5px" font-weight="bold" font-family="'Helvetica Neue', Helvetica, Arial-Unicode, Arial, Sans-serif">from the Noun Project</text></svg>