<svg xmlns="http://www.w3.org/2000/svg" xmlns:xlink="http://www.w3.org/1999/xlink" version="1.1" x="0px" y="0px" viewBox="0 0 32 40" enable-background="new 0 0 32 32" xml:space="preserve"><path d="M28.521,28.353c-1.254-4.054-4.543-7.082-8.806-8.128c-0.746-0.829-1.002-1.371-1.087-1.632  c0.399-0.621,1.68-2.678,2.472-4.593h0.241c1.269,0,2.192-0.732,2.192-2c0-0.392-0.117-0.725-0.304-1.008  c-0.104-3.961-2.767-7.973-7.173-7.973c-4.426,0-6.824,3.793-7.021,7.703C8.719,11.049,8.519,11.476,8.519,12  c0,0.973,0.546,1.626,1.371,1.879c0.709,1.235,2.201,2.66,5.281,2.86c0.156,0.246,0.418,0.418,0.73,0.418  c0.487,0,0.883-0.396,0.883-0.883c0-0.488-0.396-0.883-0.883-0.883c-0.284,0-0.525,0.144-0.687,0.353  c-1.136-0.076-2.008-0.337-2.686-0.687c-0.565-1.255-1.042-2.544-1.098-3.385c1.467-0.594,5.744-2.395,7.25-3.792  c0,0,0.633,2.242,2.045,3.115c0.014,0.171,0.022,0.343,0.022,0.514c0,1.676-2.219,5.416-3.074,6.715  c-0.066,0.101-0.094,0.224-0.077,0.344c0.057,0.406,0.353,1.279,1.675,2.649c-0.129,0.693-0.727,2.769-3.252,2.78  c-2.532-0.012-3.289-2.079-3.475-2.796c0.033-0.008,0.063-0.021,0.097-0.028l-0.015-0.062c1.503-1.586,1.604-2.412,1.593-2.636  c-0.003-0.08-0.025-0.158-0.065-0.228c-0.122-0.212-0.278-0.493-0.45-0.813c-0.479-0.117-0.925-0.262-1.35-0.424  c0.37,0.729,0.689,1.308,0.842,1.577c-0.067,0.217-0.318,0.786-1.203,1.739c-4.248,1.15-7.469,4.191-8.44,8.049  c-0.037,0.149-0.004,0.308,0.091,0.43C3.739,28.929,3.885,29,4.039,29h24.004c0.159,0,0.309-0.075,0.402-0.203  C28.54,28.669,28.567,28.504,28.521,28.353z M16.057,4.019c3.785,0,5.718,3.322,6.105,6.164c-0.181-0.066-0.373-0.111-0.571-0.142  c-0.53-2.545-2.428-4.838-5.532-4.838c-3.07,0-4.95,2.283-5.48,4.822c-0.166,0.019-0.329,0.047-0.485,0.091  C10.456,7.339,12.171,4.019,16.057,4.019z M4.704,28c0.992-3.013,3.543-5.402,6.881-6.51c0.353,1.381,1.6,3.51,4.407,3.51  c0.003,0,0.005,0,0.008,0h0.019c0.001,0,0.003,0,0.004,0h0.019c0.002,0,0.004-0.001,0.006-0.001  c2.852-0.014,3.959-2.181,4.207-3.572c3.312,1.052,5.896,3.429,7.089,6.573H4.704z"/><text x="0" y="47" fill="#000000" font-size="5px" font-weight="bold" font-family="'Helvetica Neue', Helvetica, Arial-Unicode, Arial, Sans-serif">Created by Guilherme Simoes</text><text x="0" y="52" fill="#000000" font-size="5px" font-weight="bold" font-family="'Helvetica Neue', Helvetica, Arial-Unicode, Arial, Sans-serif">from the Noun Project</text></svg>