<svg xmlns="http://www.w3.org/2000/svg" xmlns:xlink="http://www.w3.org/1999/xlink" version="1.1" x="0px" y="0px" viewBox="0 0 100 100" enable-background="new 0 0 100 100" fill="#ffffff" xml:space="preserve"><g><path fill-rule="evenodd" clip-rule="evenodd" stroke="#000000" stroke-width="0.8" stroke-miterlimit="2.6131" d="M52.728,46.622    c7.686,0,15.373,0,23.059,0c-0.463-5.836-1.448-11.671-4.105-17.508c-6.703,2.425-13.131,3.256-18.953,3.484V46.622L52.728,46.622    z M81.154,46.687l12.5,0.165c-0.696-10.202-4.316-17.811-9.21-24.375c-2.578,1.785-5.153,3.377-7.732,4.282    C78.7,29.987,81.479,41.794,81.154,46.687L81.154,46.687z M74.411,21.818c2.083-0.768,4.168-1.974,6.249-3.624    c-5.961-5.599-12.186-9.112-18.586-11.199C66.845,10.838,70.958,15.779,74.411,21.818L74.411,21.818z M52.698,26.924    c0-7.247,0-14.493,0-21.74c6.857,5.071,12.826,10.904,16.613,18.61C64.212,25.716,58.673,26.759,52.698,26.924L52.698,26.924z     M47.375,46.622c-7.687,0-15.374,0-23.06,0c0.464-5.836,1.45-11.671,4.106-17.508c6.702,2.425,13.129,3.256,18.954,3.484V46.622    L47.375,46.622z M18.948,46.687L6.446,46.852c0.696-10.202,4.319-17.811,9.211-24.375c2.577,1.785,5.153,3.377,7.73,4.282    C21.401,29.987,18.623,41.794,18.948,46.687L18.948,46.687z M25.691,21.818c-2.083-0.768-4.167-1.974-6.25-3.624    c5.962-5.599,12.185-9.112,18.587-11.199C33.257,10.838,29.145,15.779,25.691,21.818L25.691,21.818z M47.403,26.924    c0-7.247,0-14.493,0-21.74c-6.856,5.071-12.827,10.904-16.613,18.61C35.89,25.716,41.428,26.759,47.403,26.924L47.403,26.924z     M50.056,0.25c27.431,0,49.804,22.374,49.804,49.805c0,27.432-22.373,49.806-49.804,49.806c-7.722,0-15.073-1.82-21.641-5.05    l4.305-4.451c3.481,1.847,8.472,3.074,14.371,3.713l-0.02-40.699C33.486,53.382,19.902,53.391,6.317,53.4    c0.331,5.214,0.813,8.104,3.265,13.161l-4.63,4.413C1.94,64.591,0.25,57.496,0.25,50.055C0.25,22.624,22.624,0.25,50.056,0.25    L50.056,0.25z M52.728,52.983c7.686,0,15.373,0,23.059,0c-0.465,5.837-1.448,11.671-4.105,17.508    c-6.703-2.424-13.131-3.256-18.953-3.483V52.983L52.728,52.983z M81.154,52.92l12.5-0.165c-0.696,10.202-4.316,17.81-9.21,24.374    c-2.578-1.784-5.153-3.377-7.732-4.281C78.7,69.619,81.479,57.812,81.154,52.92L81.154,52.92z M74.411,77.787    c2.08,0.769,4.165,1.976,6.249,3.625c-5.961,5.6-12.186,9.111-18.586,11.199C66.845,88.769,70.958,83.826,74.411,77.787    L74.411,77.787z M52.698,72.683c0,7.246,0,14.493,0,21.74c6.857-5.07,12.826-10.904,16.613-18.61    C64.212,73.889,58.673,72.848,52.698,72.683L52.698,72.683z"/><polygon fill-rule="evenodd" clip-rule="evenodd" points="15.194,98.059 33.049,80.435 41.853,89.371 41.805,58.033 9.878,58.032     19.553,67.113 1.697,84.735 15.194,98.059   "/></g></svg>