<svg xmlns="http://www.w3.org/2000/svg" xmlns:xlink="http://www.w3.org/1999/xlink" version="1.1" x="0px" y="0px" viewBox="0 0 100 100" style="enable-background:new 0 0 100 100;" fill="#444444" xml:space="preserve"><g><path d="M82.9,29.9l5.7-12.4L63.4,5.9l0.2,1.8l22.9,10.5l-4.9,10.7C82.1,29.1,82.6,29.5,82.9,29.9z"/><polygon points="65.9,30.1 66,31.5 67.3,32.1 69,31.5  "/><path d="M77.4,24.1c-1-1.2-1.6-2.8-1.6-4.5L65.6,15c-0.1,0.1-0.2,0.2-0.3,0.3l-0.1,0.1c-0.1,0.1-0.3,0.2-0.4,0.3c0,0,0,0-0.1,0   c-0.1,0.1-0.2,0.1-0.3,0.2l1.2,11.7l3.4,1.6c1,0.4,1.8,1,2.6,1.7l3.1-1L77.4,24.1z"/><path d="M78.9,28.5l2.3-5.1l0.2-0.5L81,22.7c-1.6-0.8-2.3-2.7-1.6-4.3c0,0,0,0,0-0.1l0.3-0.6l-15.5-7.1L64,11.2c0,0,0,0,0,0   l0.2,1.8c0.3-0.3,0.5-0.6,0.7-0.9l13.3,6.1c-0.7,1.9,0.1,4.1,1.8,5.2L77.4,29l1.1-0.3C78.7,28.6,78.8,28.6,78.9,28.5z"/><polygon points="61.6,1.3 36.6,3.8 37.3,5.3 60.2,3 63.2,33.3 64.8,32.8  "/><path d="M59.5,34.2c0,0.1,0,0.2,0,0.3l0,0L59.5,34.2z"/><path d="M53.2,23.3L46.1,24l0.5,1.1l6.6-0.7c2.8-0.3,5.3,1.8,5.6,4.6l-0.4-3.7C57.3,23.9,55.3,23.1,53.2,23.3z"/><path d="M56.2,22.2l-0.9-9.4c-1.5-0.5-2.8-1.6-3.6-3.1l-11.1,1.1c0,0.1-0.1,0.3-0.1,0.4l0,0.1c0,0.1-0.1,0.1-0.1,0.2l4.9,10.4   l5.4-0.5C52.5,21.1,54.5,21.4,56.2,22.2z"/><path d="M60.7,34.1L58.2,9.7l-0.6,0.1c-1.8,0.2-3.4-1.2-3.6-2.9c0,0,0-0.1,0-0.1L54,6L38.4,7.6l0.5,1.1l14-1.4   c0.4,2,2.2,3.5,4.2,3.6l1.5,14.4l0.4,3.7l0.5,5.1l0,0.3L60.7,34.1z"/><g><g><circle cx="79" cy="57.5" r="3.3"/></g></g><path d="M21.1,52.2c0.4-0.1,0.8-0.1,1.2-0.3l56.4-17.2l2.6,8.7l-12.2,3.7c-1.1,0.3-2,1.1-2.6,2.1C62.8,55.8,63.5,60.4,64,62   c0.5,1.6,2.4,5.8,9.3,9.3c1,0.5,2.2,0.6,3.4,0.3l12.2-3.7l2.6,8.7L33.8,94.1L21.1,52.2"/><g><path d="M96.2,76.8l-3.7-12l0.3-0.1c1.4-0.4,2.2-1.9,1.7-3.3l-4.8-15.8c-0.4-1.4-1.9-2.2-3.3-1.7l-0.3,0.1l-3.7-12    c-0.5-1.5-2.1-2.4-3.6-1.9l-2.1,0.6l-2.5,0.8L21,47.7c-1.7,0.5-3.5-0.4-4-2.1c-0.2-0.7-0.2-1.4,0.1-2l-0.1-0.3l1.3,2.7    c0.5,0.5,1.2,0.7,2,0.5L5.8,16L33,3.1l16.4,34.4l1.5-0.5L33.7,1l-30,14.3l12.1,25.5c-1.3,1.5-1.8,3.5-1.2,5.5l15.4,50.6    c0.5,1.5,2.1,2.4,3.6,1.9l60.7-18.5C95.8,80,96.7,78.3,96.2,76.8z M87.1,46.5l4.7,15.6l-16.6,5c-2.8-1.4-6.1-3.9-6.8-6.5    c-0.8-2.6,0.6-6.4,2.1-9.1L87.1,46.5z M93.5,78L32.8,96.4c-0.2,0.1-0.4,0-0.4-0.2l-14-46c1,0.3,2.2,0.3,3.3,0l57.9-17.7    c0.1,0,0.2,0,0.3,0c0.1,0,0.1,0.1,0.2,0.2l0,0l3.7,12l-14,4.3c-0.6,0.2-1.2,0.6-1.5,1.2c-1.1,2-3.7,7.1-2.4,11.3    c1.3,4.2,6.2,7.1,8.3,8.1c0.6,0.3,1.3,0.4,1.9,0.2l14-4.3l3.7,12C93.8,77.7,93.7,77.9,93.5,78z"/><path d="M27.1,12.3L17,17.1c0,0.1,0,0.3,0,0.4l0,0.1c0,0.2,0,0.3,0,0.5c0,0,0,0,0,0.1c0,0.1,0,0.3-0.1,0.4l0,0.1    c0,0.2-0.1,0.3-0.1,0.5l0,0.1c-0.1,0.3-0.2,0.6-0.3,0.9l0,0l0,0.1c-0.1,0.1-0.1,0.3-0.2,0.4l0,0.1c-0.1,0.1-0.1,0.2-0.2,0.4    c0,0,0,0,0,0.1c-0.1,0.1-0.2,0.3-0.3,0.4l-0.1,0.1c-0.1,0.1-0.2,0.2-0.3,0.3l4,8.5c1.1-1.6,2.6-2.8,4.3-3.7l6.3-3    c1.8-0.8,3.7-1.2,5.6-1.1l-4.1-8.5C30,13.9,28.4,13.3,27.1,12.3z"/><path d="M44.4,36l1.3,2.7l1.2-0.4l-2.9-6.1l-2.2-4.7L33.4,10l-0.5,0.2c-1.6,0.7-3.6,0-4.3-1.6c0,0,0-0.1,0-0.1L28.2,8l-15.4,7.3    l0.3,0.6c0,0,0,0,0,0.1c0.8,1.6,0.1,3.6-1.6,4.4c0,0-0.1,0-0.1,0l-0.6,0.3l8.3,17.5l2.2,4.7l1.3,2.8l1.2-0.4l1.4-0.4    c-1.2-0.5-2.2-1.3-2.8-2.6l-0.7-1.5l-1.5-3.2c-0.6-1.2-0.7-2.6-0.2-3.9c0.5-1.3,1.4-2.3,2.6-2.9l11-5.2c0.2-0.1,0.5-0.2,0.7-0.3    c2.4-0.7,5,0.4,6.1,2.7l2.2,4.7c0.6,1.2,0.7,2.6,0.2,3.9c-0.5,1.3-1.4,2.3-2.6,2.9l-4.5,2.1l6.4-2C43.4,38.8,44.1,37.5,44.4,36z     M33.2,24.5l-11,5.2c-1.5,0.7-2.7,2-3.3,3.6c-0.1,0.3-0.2,0.7-0.3,1l-6.2-13.1c0.9-0.5,1.6-1.4,1.9-2.4c0.4-1,0.3-2.1,0-3    l13.2-6.3c1.1,1.8,3.2,2.6,5.2,2c0,0,0,0,0,0L39,24.7C37.3,23.7,35.1,23.6,33.2,24.5z"/></g></g></svg>