<svg xmlns="http://www.w3.org/2000/svg" xmlns:xlink="http://www.w3.org/1999/xlink" version="1.1" x="0px" y="0px" viewBox="0 0 71.547 118.75" enable-background="new 0 0 71.547 95" xml:space="preserve"><g><polygon fill="#ffffff" points="51.655,30.281 46.609,24.938 32.062,39.188 24.937,32.062 19.89,37.406 32.062,49.578  "/><path fill="#ffffff" d="M71.547,35.625C71.547,15.735,55.812,0,35.624,0C15.734,0,0,16.031,0,35.922   c0,13.359,7.422,24.938,18.109,31.171l-7.719,22.562l10.093-4.75L24.937,95l8.312-23.453h2.672h2.078L46.609,95l4.452-10.095   l10.094,4.75l-7.719-22.562C64.124,60.859,71.547,49.281,71.547,35.625 M35.624,62.641c-14.844,0-27.015-12.173-27.015-27.015   c0-14.844,12.171-26.719,27.015-26.719s27.015,12.172,27.015,27.016C62.639,50.766,50.468,62.641,35.624,62.641"/></g></svg>