<svg xmlns="http://www.w3.org/2000/svg" viewBox="0 0 52 65" x="0px" y="0px"><title>money-2</title><path d="M112,298a26,26,0,1,1,26-26A26,26,0,0,1,112,298Zm0-48a22,22,0,1,0,22,22A22,22,0,0,0,112,250Zm8.38,26.71c0-3.39-1.62-5.6-6-7.1-2.82-1-3.58-1.55-3.58-2.63s1.05-1.88,2.79-1.88a11.44,11.44,0,0,1,5,1.32l0.77-4.94a13.79,13.79,0,0,0-4.38-1.1V258h-4v2.35c-5,.74-7,3.64-7,7.33,0,2.73,1.83,5.31,6.58,6.91,2.68,0.89,3.41,1.46,3.41,2.63s-0.88,1.93-3,1.93a14,14,0,0,1-6.15-1.74l-1.27,5.13a15.87,15.87,0,0,0,7.34,1.6l0.16,0V286h4v-2.72C117,282.07,120.38,279.68,120.38,276.71Z" transform="translate(-86 -246)"/><text x="0" y="67" fill="#000000" font-size="5px" font-weight="bold" font-family="'Helvetica Neue', Helvetica, Arial-Unicode, Arial, Sans-serif">Created by Ismael Ruiz</text><text x="0" y="72" fill="#000000" font-size="5px" font-weight="bold" font-family="'Helvetica Neue', Helvetica, Arial-Unicode, Arial, Sans-serif">from the Noun Project</text></svg>