<svg id="Layer_1" data-name="Layer 1" xmlns="http://www.w3.org/2000/svg" viewBox="0 0 1200 280"><defs><style>.cls-1{fill:#293052;}.cls-2{fill:#e68025;}.cls-3{fill:#fff;}</style></defs><title>logo-jp-HL</title><path class="cls-1" d="M519.48,61.11a32.63,32.63,0,0,0-9.63,1.33,31.62,31.62,0,0,0-14,8.77c-.47.47-.93,1-1.39,1.52V62.91H470.78v90h23.69V102.48c0-6.2,1.62-11,4.83-14.42s7.34-5,12.56-5,9.27,1.57,12.09,4.82,4.31,8.07,4.31,14.31v50.77H552V96.15c0-10.54-2.86-19.1-8.48-25.41S529.77,61.11,519.48,61.11Z"/><path class="cls-1" d="M606.85,61.77a74.76,74.76,0,0,0-18.61,2,95,95,0,0,0-15,5.33l-1.56.73,6.57,19.37,1.88-.77a87.4,87.4,0,0,1,11.32-3.84,51.05,51.05,0,0,1,12.61-1.41c6.33,0,11.22,1.43,14.51,4.28,3.06,2.64,4.65,6.36,4.81,11.37a85.39,85.39,0,0,0-8.32-1.93,78.84,78.84,0,0,0-13.63-1A55.76,55.76,0,0,0,587,97.68a33.43,33.43,0,0,0-11.76,5.55,26.28,26.28,0,0,0-7.82,9.48A30.1,30.1,0,0,0,564.61,126v.33a27.14,27.14,0,0,0,2.73,12.37,26.43,26.43,0,0,0,7.2,8.95,30.85,30.85,0,0,0,10.34,5.39,41.73,41.73,0,0,0,12.33,1.8c6.8,0,12.69-1.28,17.52-3.8a41.05,41.05,0,0,0,8.5-5.85v7.85h23.39v-53c0-12-3.31-21.49-9.86-28.19S620.17,61.77,606.85,61.77Zm-4.09,74.48A18.94,18.94,0,0,1,592,133.31a8.93,8.93,0,0,1-4-7.9v-.34a9.42,9.42,0,0,1,4.39-8.24c3.15-2.16,7.68-3.25,13.47-3.25a56.9,56.9,0,0,1,10.5.93,54.59,54.59,0,0,1,7.36,1.91V120a14.34,14.34,0,0,1-1.47,6.55,15.48,15.48,0,0,1-4.28,5.09,22.57,22.57,0,0,1-6.72,3.39A29,29,0,0,1,602.76,136.25Z"/><path class="cls-1" d="M768.73,123.34,745.61,62.91H720.42L757.14,151c-1.42,3.1-2.86,5.25-4.34,6.36a9.27,9.27,0,0,1-5.88,1.75,18.28,18.28,0,0,1-5.39-.82,31.34,31.34,0,0,1-5.32-2.24l-1.77-.94-8.25,18.16,1.56.83a49.28,49.28,0,0,0,9.75,4,42.92,42.92,0,0,0,11.55,1.45,33.27,33.27,0,0,0,9.88-1.38,25.16,25.16,0,0,0,8.16-4.52,31.79,31.79,0,0,0,6.61-7.9,76.45,76.45,0,0,0,5.53-11.58l35.28-91.26H789.84Z"/><path class="cls-2" d="M923.44,123.72a45.06,45.06,0,0,1-9.65,7.47,24.41,24.41,0,0,1-21.06.75,24,24,0,0,1-7.56-5.52,24.72,24.72,0,0,1-4.95-8.21,29.4,29.4,0,0,1-1.74-10.12v-.33a28.51,28.51,0,0,1,1.74-10,25.36,25.36,0,0,1,4.8-8.13,23.3,23.3,0,0,1,7.26-5.45,20.88,20.88,0,0,1,9.13-2A22.89,22.89,0,0,1,913.11,85a44.14,44.14,0,0,1,9.32,7.45l1.41,1.43,14.78-16-1.17-1.28a50.1,50.1,0,0,0-14.68-11.2c-5.63-2.84-12.77-4.29-21.18-4.29A46,46,0,0,0,858.29,90a47.94,47.94,0,0,0-3.51,18.1v.33a47.52,47.52,0,0,0,3.51,18,45.83,45.83,0,0,0,9.78,14.82,46.63,46.63,0,0,0,33.35,13.62c8.67,0,16-1.6,21.67-4.73a56.31,56.31,0,0,0,15-12.09l1.21-1.33-14.57-14.34Z"/><path class="cls-2" d="M1028.75,74.83a46.27,46.27,0,0,0-15.16-10,49.16,49.16,0,0,0-19.11-3.67,48.3,48.3,0,0,0-19.09,3.75,46.92,46.92,0,0,0-25.17,25,45.7,45.7,0,0,0-3.67,18.22v.33a46.73,46.73,0,0,0,3.56,18,45.09,45.09,0,0,0,10,14.82,47.32,47.32,0,0,0,15.14,10,50.88,50.88,0,0,0,38.12-.11,46.57,46.57,0,0,0,25.25-25,45.14,45.14,0,0,0,3.66-18.06v-.33a45.84,45.84,0,0,0-13.53-32.92ZM994.48,134a22.8,22.8,0,0,1-9.67-2,24.29,24.29,0,0,1-7.68-5.6,26.75,26.75,0,0,1-5.06-8.24,27.46,27.46,0,0,1-1.82-10v-.34a30,30,0,0,1,1.67-10,23.28,23.28,0,0,1,4.81-8.08,23.92,23.92,0,0,1,7.6-5.45,24.89,24.89,0,0,1,19.69,0,24.07,24.07,0,0,1,7.7,5.54,25.16,25.16,0,0,1,5,8.2,28.06,28.06,0,0,1,1.82,10.1v.33a29.25,29.25,0,0,1-1.66,9.89,25,25,0,0,1-4.82,8.12A23.14,23.14,0,0,1,994.48,134Z"/><path class="cls-2" d="M1181.45,70.28c-5.66-6.07-13.65-9.17-23.66-9.17a34.73,34.73,0,0,0-17.89,4.47A44.44,44.44,0,0,0,1128.78,75a29.35,29.35,0,0,0-9.13-9.33c-4.54-3-10.19-4.51-16.72-4.51a31.51,31.51,0,0,0-9.43,1.33,28.48,28.48,0,0,0-7.66,3.62,34,34,0,0,0-5.94,5.05c-.46.47-.87,1-1.28,1.44V62.91h-23.71v90h23.71V102.63c0-6.21,1.52-11.11,4.57-14.54S1090.11,83,1095.1,83s8.72,1.55,11.39,4.7,4.12,8,4.12,14.26v50.94h23.71V102.48c0-6.42,1.54-11.34,4.6-14.59A15.38,15.38,0,0,1,1150.81,83c5,0,8.73,1.55,11.39,4.7s4.12,8.08,4.12,14.43v50.77H1190V96C1190,85,1187.14,76.34,1181.45,70.28Z"/><rect class="cls-1" x="434.42" y="62.91" width="23.73" height="90.02"/><path class="cls-1" d="M459.41,41.85A13.13,13.13,0,1,0,446.27,55,13.14,13.14,0,0,0,459.41,41.85Z"/><path class="cls-2" d="M843.5,141.77a13.14,13.14,0,1,0-13.12,13.13A13.12,13.12,0,0,0,843.5,141.77Z"/><path class="cls-1" d="M414.75,98a34,34,0,0,0-7.89-6.25,63.16,63.16,0,0,0-6.11-3l-1.33-.55,1.2-.78c1-.66,2.05-1.39,3.06-2.17a28.25,28.25,0,0,0,5.79-5.92,29.26,29.26,0,0,0,4-7.79A31.13,31.13,0,0,0,415,61.27v-.34a28.71,28.71,0,0,0-8.56-21.07c-7.36-7.4-18.34-11.15-32.6-11.15H318V152.93h57.49a73.62,73.62,0,0,0,18.71-2.23,44.55,44.55,0,0,0,14.65-6.52,30.48,30.48,0,0,0,9.52-10.88,32.92,32.92,0,0,0,3.35-15v-.34a32.46,32.46,0,0,0-1.83-11.38A25.31,25.31,0,0,0,414.75,98Zm-73-18.72V50.19H371.2c6.59,0,11.67,1.26,15.08,3.82s5,5.89,5,10.39v.34c0,5.17-1.83,8.88-5.66,11.38s-9.29,3.89-16,3.89H341.76ZM398,116c0,5.15-1.88,8.91-5.72,11.47s-9.48,4-16.45,4H341.76V100.59h32.55c8.12,0,14.22,1.37,18.09,4.06a12.52,12.52,0,0,1,5.64,11Z"/><path class="cls-1" d="M711.73,61.28c-8-.35-14.83,1.59-20.18,5.8A37.23,37.23,0,0,0,683,76.53V62.91H659.29v90H683V118.22a45.85,45.85,0,0,1,2-14.37,27.43,27.43,0,0,1,5.62-10,23.33,23.33,0,0,1,8.65-5.9,30.37,30.37,0,0,1,11.22-2h2.91V61.35Z"/><path class="cls-1" d="M380.34,198.53v4.78H329.71V215.9c0,10.24-.94,25.32-6.67,35.49a18.45,18.45,0,0,0-4.24-2.83c5.45-9.63,6-23.1,6-32.66V198.53H349.5v-8.62h5.12v8.62Zm-23.5,14.21H379.4v4.51H356.84v9.63h18.05v24.37h-5.05v-2.49H340.75v2.63h-4.92V226.88h16V204.73h5Zm13,18.58H340.75v12.93h29.09Z"/><path class="cls-1" d="M414.78,241.56c-9.49,2.28-19.59,4.51-26.93,6.06L386.57,243c5.05-.94,12.05-2.35,19.46-3.91l-3.37-1a104,104,0,0,0,3-13.61l4.78,1.22c-1.28,4.51-2.62,9.76-3.9,13.26l7.81-1.61Zm-.87-43.43H387.58v-4.58h26.33Zm-1.55,24.37h-23v-18h23Zm-18.79,16A42.27,42.27,0,0,0,391,226.07l4.05-1a41.28,41.28,0,0,1,2.82,12.39Zm14.21-29.9h-14v9.77h14Zm20.67,33.94a46.16,46.16,0,0,1-14.74,8.82,31.11,31.11,0,0,0-3.3-3.3c5.11-1.75,10.9-5.19,13.66-8Zm-1.35-38.78c.48-2,1-4.31,1.35-6.4H415.73v-4.31H448v4.31H434c-.67,2.22-1.28,4.44-2,6.4h13.8v34.87H417.75V203.79Zm14,3.9H422.39v6.53h18.72Zm0,10.1H422.39v6.6h18.72Zm0,10.3H422.39v6.66h18.72Zm-3.23,12.32a80.53,80.53,0,0,1,11.51,8.28l-4,2.7a80.22,80.22,0,0,0-11.31-8.55Z"/><path class="cls-1" d="M468.75,237.85c3.23,5.05,9,7.28,16.9,7.55,7.34.33,22.69.13,30.7-.41a24.16,24.16,0,0,0-1.54,4.91c-7.48.34-21.75.47-29.16.14-8.82-.33-14.88-2.69-19-8-3.43,3-7,5.86-10.84,8.68l-2.42-4.84a118.28,118.28,0,0,0,10.5-7.61V221h-9.69v-4.72h14.54Zm-2.22-32.18c-2.09-3.3-6.94-8-11.18-11.18l3.5-3.1c4.25,3,9.23,7.55,11.38,10.84Zm13.87,35.61h-4.71v-34.6h19.19c-4-2-8.76-4.11-12.8-5.59l3.17-2.83c2.89,1,6.19,2.36,9.36,3.7a51.3,51.3,0,0,0,9.22-5.31H475.75v-4h32.86l.94-.27,3.1,2.36a59.8,59.8,0,0,1-13.6,9.23c1.95.94,3.7,1.88,5.19,2.69h8.48v29.63c0,2.42-.54,3.63-2.29,4.37s-4.58.74-9.09.74a15.37,15.37,0,0,0-1.42-4.1c3.17.13,6.07.06,6.87.06s1.15-.27,1.15-1.14v-6.13H496.22V241h-4.51V230.11H480.4Zm0-30.76v5.92h11.31v-5.92Zm11.31,15.75v-6.13H480.4v6.13Zm16.23-15.75H496.22v5.92h11.72Zm0,15.75v-6.13H496.22v6.13Z"/><path class="cls-1" d="M534,201.36a79.73,79.73,0,0,1-9.29,5.59,23.43,23.43,0,0,0-3.71-3.57c7.35-3.23,15.16-8.35,19.74-13.81l4.51,1.69a48.41,48.41,0,0,1-6.47,6.4v14.07H534Zm12.59,42.08c-5.45,3.17-13.87,6.27-20.53,8.08a39.79,39.79,0,0,0-3.71-3.77c6.87-1.41,15-3.77,19.73-6.47Zm-15.76-29.83h43.57v27H530.86Zm4.86,7.88h33.73V217H535.72Zm0,7.88h33.73v-4.65H535.72Zm0,7.95h33.73V232.6H535.72Zm23.49-26.53c-7.34,0-9.22-1.35-9.22-6.47V190.45h4.78v7c7.27-1.34,15-3.23,19.39-5.18l3.7,3.37a131.86,131.86,0,0,1-23.09,5.58v3.1c0,1.89.61,2.22,4.71,2.22h14.14c3,0,3.43-.74,3.77-5.72a15.52,15.52,0,0,0,4.37,1.62c-.6,6.66-2.15,8.35-7.8,8.35Zm2.7,30.7c7.27,2.35,15.28,5.25,20.19,7.48l-5.52,2.48a147.36,147.36,0,0,0-18.78-7.4Z"/><path class="cls-1" d="M605.1,201l6,1.21c-.41,1.49-.94,3.44-1.21,4.92-.94,4.17-3.3,14.14-6.13,21a97.24,97.24,0,0,1-9.9,18.51l-5.72-2.42a88.66,88.66,0,0,0,10.37-18.32A103.21,103.21,0,0,0,605.1,201Zm16.76,1.08,5.46-1.82a218.94,218.94,0,0,1,9.83,21.28c2.76,6.67,6.32,17,8.08,23l-6,2a202.13,202.13,0,0,0-7.6-23.16C628.93,216.44,624.82,207.09,621.86,202.1Zm19,.87-3.64,1.62a77.25,77.25,0,0,0-5.45-9.36l3.57-1.48A78.31,78.31,0,0,1,640.85,203Zm7.54-2.75-3.63,1.61a65.37,65.37,0,0,0-5.59-9.29l3.56-1.48A78,78,0,0,1,648.39,200.22Z"/><path class="cls-1" d="M705.05,197.66a105.86,105.86,0,0,1-18,14.61v28.82a50.85,50.85,0,0,0,.4,7.2h-6.6a60.51,60.51,0,0,0,.41-7.2V215.63a134.65,134.65,0,0,1-25.32,10.51l-3.09-5.26a105.9,105.9,0,0,0,30.09-12.39c6.87-4.23,13.94-10.09,17.71-14.87Z"/><path class="cls-1" d="M762.11,209.84a58.43,58.43,0,0,0,5.86-.27v5.73c-1.08-.14-3.84-.2-5.92-.2H744.2c0,14.81-5.05,25.72-18.65,33.66l-5.25-3.91c12.66-6,18.18-15.88,18.24-29.75H718.82c-2.56,0-5,.06-6.33.2v-5.79c1.34.13,3.77.33,6.19.33h19.86v-9.09a37.35,37.35,0,0,0-.6-6.66h6.67a60.25,60.25,0,0,0-.41,6.73v9Z"/><path class="cls-1" d="M788.14,195.64c-.14,1.28-.21,3.23-.21,4.84V223c0,1.69.07,3.91.21,5.12h-6.2c.07-1,.27-3.16.27-5.18V200.48c0-1.21-.13-3.56-.27-4.84Zm31.17-.47c-.13,1.61-.27,3.57-.27,5.79v10.91c0,16.15-2.15,21.47-7,27.26-4.37,5.25-11.11,8.15-16,9.84l-4.38-4.65c6.2-1.55,12-4.25,16.16-9,4.84-5.59,5.65-11,5.65-23.77V201c0-2.22-.2-4.18-.34-5.79Z"/><path class="cls-1" d="M833.49,217.05c2,.13,5.58.34,9.36.34h36.89c3.37,0,5.79-.21,7.27-.34v6.6c-1.34-.07-4.17-.34-7.2-.34h-37c-3.71,0-7.28.13-9.36.34Z"/><path class="cls-1" d="M947.11,205.67a48.11,48.11,0,0,0,5.72-.4v5.65c-1.55-.07-3.91-.13-5.52-.13h-10.7c.2,10.09.4,23.49.47,31.91,0,3.5-2.09,5.39-6.13,5.39-3.43,0-7.48-.14-10.78-.41l-.47-5.52a63.62,63.62,0,0,0,9.5.81c1.95,0,2.49-.87,2.49-2.69,0-5.39-.07-15.42-.21-24.44-5.58,7.94-17.36,18.85-29.41,25.25l-3.85-4.38c13.6-6.67,25.59-17.84,30.91-25.92H906.91c-2.22,0-4.17.06-6.26.2v-5.72a47.93,47.93,0,0,0,6.19.4h24.51c-.06-2.7-.13-5-.2-6.53a46.49,46.49,0,0,0-.61-5.66h6.27a40,40,0,0,0-.41,5.66l.14,6.53Z"/><path class="cls-1" d="M1000.67,200.08c.67,0,1.41,0,2.22-.07a7.27,7.27,0,0,1-.34-2.15,7.54,7.54,0,1,1,7.54,7.54,8.11,8.11,0,0,1-2.56-.4l-.13.74c-1.48,7.06-4.72,17.91-10,24.84-6.2,7.88-14.21,14.14-26.53,18l-4.58-5.05c13.06-3.23,20.6-9,26.26-16.16,4.78-6.13,7.87-15.48,8.82-21.95H966.86c-2.62,0-5,.13-6.66.2v-5.92c1.82.2,4.51.4,6.73.4Zm13.87-2.22a4.55,4.55,0,0,0-4.45-4.51,4.5,4.5,0,0,0-4.45,4.51,4.44,4.44,0,0,0,4.45,4.44A4.49,4.49,0,0,0,1014.54,197.86Z"/><path class="cls-1" d="M1041.64,218.73l-3.1,4.71a148.73,148.73,0,0,0-14.67-9.22l3-4.58C1030.87,211.79,1038.68,216.58,1041.64,218.73Zm7.81,16c11.18-6.39,20.07-15.14,25.52-24.64l3.23,5.52c-5.86,9.09-15.15,17.78-25.85,24.11a84.08,84.08,0,0,1-22.36,8.35l-3.1-5.52A71.53,71.53,0,0,0,1049.45,234.75Zm2.16-30.76-3.17,4.58c-3.23-2.43-10.5-7.28-14.47-9.57l3-4.51C1041,196.71,1048.71,201.83,1051.61,204Z"/><path class="cls-1" d="M1117.82,250c.07-.6.07-1.68.07-2.76h-27.14c-2.08,0-4.44.14-5.52.2V242a52.64,52.64,0,0,0,5.52.27h27.14v-12h-24.31c-2.36,0-4.71.07-6.06.14v-5.19c1.28.07,3.7.27,6,.27h24.37V214.29h-25c-1.75,0-5.66.13-6.87.2v-5.25c1.28.13,5.12.27,6.87.27h26c1.48,0,3.24-.07,4.11-.14-.06.74-.06,2.16-.06,3.43v33.54c0,1.07.06,2.69.13,3.63Z"/><path class="cls-1" d="M1162.49,232.13c10.37-6.53,18.58-16.5,22.49-24.78l3.23,5.73a67.21,67.21,0,0,1-22.62,23.9,72.69,72.69,0,0,1-26.46,10.5l-3.57-5.52A69.58,69.58,0,0,0,1162.49,232.13Zm-4-21.34-4.24,4.24A139.86,139.86,0,0,0,1137.51,201l3.84-4.11A146,146,0,0,1,1158.52,210.79Z"/><path class="cls-3" d="M243.81,43.11c-53.42-53.45-140.31-53.45-193.75,0s-53.41,140.37,0,193.79,140.36,53.45,193.75,0S297.29,96.52,243.81,43.11Z"/><path class="cls-1" d="M108.76,175.94s1.57,11.75,11.47,17.19l-2.64-4.9S122.63,175,108.76,175.94Z"/><path class="cls-1" d="M236.88,50.05A127.28,127.28,0,0,0,57,50C7.41,99.64,7.41,180.37,57,230A127.21,127.21,0,0,0,236.88,50.05ZM223.73,216.81c-1.39,1.36-2.75,2.68-4.15,4-30.56,24.9-54.1,12.51-54.37,12.51-16-3.19-23.87-3.23-28.34-6.23-1.13-.75-4.74-2.69-5.57-2.22-3.26,1.94-7.74,2.93-12.34-.73-.41-.33-.8-.71-1.15-1-5.08-5.06-3.36-10.28-1.67-12.1,1.17-1.18-.89-4.52-.89-4.52s-6-8.9-10.08-14.25c-4.51-5.88-5.13-17.55-5.18-17.7l-.06-.17a47.58,47.58,0,0,1-6.6-9.71,25.56,25.56,0,0,0-3.52-4.27A21.61,21.61,0,0,1,87.68,158a1,1,0,0,1-.1-.75c.42-2.52,5.85-8.09,7-8.86,1.44-.94,7.63-4.7,7.63-4.7s3.47-5.47,9.4-5.47c5.34,0,8.6-.29,17.81,2.71l3.83,1.22c6.42,2.06,12.08,4.48,16.58,6.42a73.66,73.66,0,0,0,9.22,3.59c7.94,2.09,22-4.34,24.91-7,4.85-4.41,7-7.37,7-9.79,0-1.36-.56-2.55-1.93-4-.72-.66-1.64-1.89-2.79-3.06a4.82,4.82,0,0,0-.62-.56c-13.44-14.29-11.12-23.24-11.1-23.39.57-6.43-3.11-10.55-7.07-14.82l-.65-.81a6.13,6.13,0,0,1-.46-.52c5.73.94,9.63,3.25,20.82,4.49,6.35.69,4.35.63,9.42.5,7-.22,12.54-.83,12.92-2.42-.68-.58-3.78.17-18.63-5.5-6.87-2.64-8-3-12.33-4.48-5.62-1.9-11.71-4.52-11.71-4.52,24.23,6.36,32.15,8.85,43.24,9a35.21,35.21,0,0,0,8.33-.74c1.57-.29,6.47-1.4,7-3.09.17-.3-4.69.8-13.68-2.17-28.28-9.34-30.69-14-46.36-20.12-5.47-2.12-7.25-3.28-23.77-7.55-7.56-1.94-19-.82-20.56.15-21.43-5-26.3-4.49-32.6-3.13A108.71,108.71,0,0,1,223.73,63.23a110.94,110.94,0,0,1,13.24,16l.52.78a108.59,108.59,0,0,1-13.76,136.77ZM152.52,94.21c10.64,3.79,14.06,15.12,14.06,15.12C153,112.42,155.9,98.6,155.9,98.6Z"/></svg>