<svg id="Layer_1" data-name="Layer 1" xmlns="http://www.w3.org/2000/svg" viewBox="0 0 173 173"><defs><style>.cls-1{fill:none;stroke:#e88024;stroke-miterlimit:10;stroke-width:2px;}</style></defs><path class="cls-1" d="M104.47,66.47a28.34,28.34,0,1,0,8.29,20A28.13,28.13,0,0,0,104.47,66.47Z"/><path class="cls-1" d="M99,78.33,79.55,97.74a1.71,1.71,0,0,1-2.4,0L68.92,89.5a1.69,1.69,0,1,1,2.39-2.39l6.24,6.24a1.13,1.13,0,0,0,1.6,0L96.56,75.94A1.69,1.69,0,0,1,99,78.33Z"/><path class="cls-1" d="M84.44,110.87a24.34,24.34,0,0,0,23.62-18.34"/></svg>