<svg xmlns="http://www.w3.org/2000/svg" xmlns:xlink="http://www.w3.org/1999/xlink" version="1.1" x="0px" y="0px" viewBox="0 0 100 100" enable-background="new 0 0 100 100" fill="#444444" xml:space="preserve"><defs>
  </defs><g><polygon points="86.711,89.992 7.568,89.992 7.568,17.183 52.217,17.183 52.217,20.183 10.568,20.183 10.568,86.992 83.711,86.992    83.711,47.158 86.711,47.158  "/></g><g><rect x="15.596" y="42.889" width="13.052" height="38.154"/><path d="M29.148,81.543H15.096V42.389h14.052V81.543z M16.096,80.543h12.052V43.389H16.096V80.543z"/></g><g><rect x="32.879" y="31.368" width="13.053" height="49.675"/><path d="M46.432,81.543H32.379V30.868h14.053V81.543z M33.379,80.543h12.053V31.868H33.379V80.543z"/></g><g><rect x="50.161" y="49.333" width="13.053" height="31.71"/><path d="M63.714,81.543H49.661v-32.71h14.053V81.543z M50.661,80.543h12.053v-30.71H50.661V80.543z"/></g><g><rect x="67.446" y="77.857" width="13.051" height="3.187"/><path d="M80.997,81.543H66.946v-4.187h14.051V81.543z M67.946,80.543h12.051v-2.187H67.946V80.543z"/></g><path d="M59.876,39.375c0.003,0,0.003,0,0.003,0h-0.05l2.872,5.009l2.869-5.009h25.878c1.588,0,2.872-1.794,2.872-4.005v-24.02  c0-2.214-1.284-4.005-2.872-4.005H59.876c-1.586,0-2.87,1.791-2.87,4.005v24.02C57.005,37.581,58.29,39.375,59.876,39.375z   M73.386,34.869c-0.125-0.763-0.187-1.516-0.187-2.262c0-0.742,0.062-1.505,0.187-2.292c0.766-0.125,1.519-0.187,2.262-0.187  c0.742,0,1.509,0.062,2.292,0.187c0.125,0.786,0.187,1.538,0.187,2.264c0,0.762-0.062,1.527-0.187,2.29  c-0.783,0.125-1.538,0.187-2.263,0.187C74.914,35.056,74.151,34.994,73.386,34.869z M73.261,12.594  c0.805-0.126,1.602-0.188,2.387-0.188c0.806,0,1.611,0.062,2.417,0.188l-0.311,15.15c-0.723,0.123-1.415,0.186-2.077,0.186  c-0.703,0-1.404-0.063-2.104-0.186L73.261,12.594z"/></svg>