<svg xmlns="http://www.w3.org/2000/svg" xmlns:xlink="http://www.w3.org/1999/xlink" xmlns:sketch="http://www.bohemiancoding.com/sketch/ns" viewBox="0 0 50 50" version="1.1" x="0px" y="0px"><g stroke="none" stroke-width="1" fill="none" fill-rule="evenodd" sketch:type="MSPage"><g sketch:type="MSArtboardGroup"><g sketch:type="MSLayerGroup" transform="translate(25.000000, 25.000000) rotate(-270.000000) translate(-25.000000, -25.000000) translate(2.000000, 2.000000)"><path d="M23,44 L23,44 C34.5979797,44 44,34.5979797 44,23 C44,11.4020203 34.5979797,2 23,2 C11.4020203,2 2,11.4020203 2,23 C2,34.5979797 11.4020203,44 23,44 L23,44 Z M23,46 L23,46 C10.2974508,46 0,35.7025492 0,23 C0,10.2974508 10.2974508,0 23,0 C35.7025492,0 46,10.2974508 46,23 C46,35.7025492 35.7025492,46 23,46 L23,46 Z" fill="#ffffff" sketch:type="MSShapeGroup"/><path d="M22.4608154,14.5493164 L22.4608154,32.0493164" stroke="#ffffff" stroke-width="2" stroke-linecap="round" sketch:type="MSShapeGroup" transform="translate(22.460815, 23.088501) rotate(-270.000000) translate(-22.460815, -23.088501) "/><path d="M20.0930995,27.2402339 L28.3799957,18.9533376 L36.6200043,27.1933462" stroke="#ffffff" stroke-width="2" stroke-linecap="round" stroke-linejoin="round" sketch:type="MSShapeGroup" transform="translate(28.356552, 23.096786) rotate(-270.000000) translate(-28.356552, -23.096786) "/></g></g></g></svg>