<svg xmlns="http://www.w3.org/2000/svg" xmlns:xlink="http://www.w3.org/1999/xlink" xmlns:sketch="http://www.bohemiancoding.com/sketch/ns" viewBox="0 0 50 50" version="1.1" x="0px" y="0px"><g stroke="none" stroke-width="1" fill="none" fill-rule="evenodd" sketch:type="MSPage"><g sketch:type="MSArtboardGroup"><g sketch:type="MSLayerGroup" transform="translate(2.000000, 2.000000)"><path d="M23,44 L23,44 C34.5979797,44 44,34.5979797 44,23 C44,11.4020203 34.5979797,2 23,2 C11.4020203,2 2,11.4020203 2,23 C2,34.5979797 11.4020203,44 23,44 L23,44 Z M23,46 L23,46 C10.2974508,46 0,35.7025492 0,23 C0,10.2974508 10.2974508,0 23,0 C35.7025492,0 46,10.2974508 46,23 C46,35.7025492 35.7025492,46 23,46 L23,46 Z" fill="#ffffff" sketch:type="MSShapeGroup"/><g transform="translate(12.000000, 14.000000)" stroke="#ffffff" stroke-width="2" sketch:type="MSShapeGroup" stroke-linecap="round"><path d="M10.4608154,0.549316406 L10.4608154,18.0493164" transform="translate(10.460815, 9.088501) rotate(-270.000000) translate(-10.460815, -9.088501) "/><path d="M8.09309947,13.2402339 L16.3799957,4.95333762 L24.6200043,13.1933462" stroke-linejoin="round" transform="translate(16.356552, 9.096786) rotate(-270.000000) translate(-16.356552, -9.096786) "/></g></g></g></g></svg>