<svg xmlns:x="http://ns.adobe.com/Extensibility/1.0/" xmlns:i="http://ns.adobe.com/AdobeIllustrator/10.0/" xmlns:graph="http://ns.adobe.com/Graphs/1.0/" xmlns="http://www.w3.org/2000/svg" fill="#2a3052" xmlns:xlink="http://www.w3.org/1999/xlink" version="1.1" x="0px" y="0px" viewBox="0 0 100 100" enable-background="false" xml:space="preserve"><path d="M9,39.1v31.5c0,1.7,1.4,3.2,3.2,3.2h5.2V82l8.2-8.2h38.7c1.7,0,3.2-1.4,3.2-3.2v-5.4h1.2l6,6c-0.3,5.5-4.9,9.8-10.4,9.8  H28.5L16.7,92.9C16,93.7,15,94.1,14,94.1c-2.2,0-3.9-1.8-3.9-3.9v-9.3c-4.7-1-8.3-5.2-8.3-10.2V39.1c0-5.8,4.7-10.4,10.4-10.4h6.3  V36h-6.3C10.4,36,9,37.4,9,39.1z M98.3,16.4v31.5c0,5-3.6,9.2-8.3,10.2v9.3c0,1.1-0.5,2.1-1.2,2.9C88,70.9,87,71.3,86,71.3  c-1,0-2-0.4-2.8-1.2L71.5,58.4H35.8c-5.8,0-10.4-4.7-10.4-10.4V16.4c0-5.8,4.7-10.4,10.4-10.4h52C93.6,5.9,98.3,10.6,98.3,16.4z   M91,16.4c0-1.7-1.4-3.2-3.2-3.2h-52c-1.7,0-3.2,1.4-3.2,3.2v31.5c0,1.7,1.4,3.2,3.2,3.2h38.7l8.2,8.2v-8.2h5.2  c1.7,0,3.2-1.4,3.2-3.2V16.4z M62.6,25.9c1.8,0,3.3-1.5,3.3-3.3c0-1.9-1.5-3.4-3.3-3.4c-1.8,0-3.3,1.5-3.4,3.3  C59.3,24.3,60.8,25.9,62.6,25.9z M66.6,41c-0.3,0.1-0.6,0.4-0.9,0.5c-0.4,0.2-0.8,0.3-1.2,0.3c-0.5,0.1-0.9-0.2-1-0.7  c-0.1-0.4-0.1-0.8-0.1-1.1c0.1-0.8,0.3-1.6,0.4-2.4c0.4-2.4,0.9-4.7,1.3-7.1c0.1-0.6,0.2-1.3,0.2-1.9c0-0.8-0.5-1.1-1.3-1.1  c-1.1,0-2.2,0-3.2,0c-1,0-2,0-3.1,0c-0.3,0-0.5,0-0.8,0.1c-0.5,0.1-0.7,0.3-0.7,0.7c0,0.3,0.1,0.7,0.6,0.8c0.3,0.1,0.7,0.2,1.1,0.2  c0.9,0.1,1.1,0.4,1.1,1.3c0,0.1,0,0.3,0,0.4c-0.4,2.1-0.7,4.2-1.1,6.2c-0.2,1.2-0.4,2.4-0.5,3.6c-0.2,1.8,1.5,3.4,2.8,3.6  c0.8,0.1,1.6,0.1,2.4,0.1c1.7,0,3.2-0.8,4.4-2c0.2-0.2,0.4-0.5,0.5-0.8C67.5,41.1,67.1,40.8,66.6,41z"/></svg>