<svg xmlns="http://www.w3.org/2000/svg" xmlns:xlink="http://www.w3.org/1999/xlink" version="1.1" x="0px" y="0px" viewBox="0 0 100 100" style="enable-background:new 0 0 100 100;" fill="#e98024" xml:space="preserve"><path d="M49.4,90.5C27.1,90.5,9,72.4,9,50.1C9,27.8,27.1,9.7,49.4,9.7s40.4,18.1,40.4,40.4  C89.8,72.4,71.7,90.5,49.4,90.5z M49.4,15.2c-19.2,0-34.9,15.7-34.9,34.9C14.5,69.3,30.1,85,49.4,85s34.9-15.7,34.9-34.9  C84.3,30.8,68.6,15.2,49.4,15.2z M47.8,64.6l18.1-25.7c0.9-1.3,0.6-3-0.7-3.9l0,0c-1.3-0.9-3-0.6-3.9,0.7l-16,22.8L37,50.9  c-1.1-1-2.9-1-3.9,0.2l0,0c-1,1.1-1,2.9,0.2,3.9l11,10C45.3,66,47,65.8,47.8,64.6z"/></svg>