<svg id="Layer_1" data-name="Layer 1" xmlns="http://www.w3.org/2000/svg" viewBox="0 0 59.1 59"><defs><style>.cls-1{fill:none;stroke:#e88024;stroke-miterlimit:10;stroke-width:2px;}</style></defs><title>affiliate landing page</title><path class="cls-1" d="M49.64,9.47a28.32,28.32,0,0,0-48.35,20,28.32,28.32,0,0,0,48.35,20,28.33,28.33,0,0,0,0-40.05Z"/><path class="cls-1" d="M44.12,21.33,24.71,40.74a1.7,1.7,0,0,1-2.39,0L14.08,32.5a1.69,1.69,0,1,1,2.4-2.39l6.24,6.24a1.12,1.12,0,0,0,1.59,0L41.73,18.94a1.69,1.69,0,1,1,2.39,2.39Z"/><path class="cls-1" d="M29.61,53.87A24.34,24.34,0,0,0,53.23,35.53"/></svg>