<svg xmlns="http://www.w3.org/2000/svg" xmlns:xlink="http://www.w3.org/1999/xlink" version="1.1" x="0px" y="0px" viewBox="0 0 100 100" enable-background="new 0 0 100 100" fill="#444444" xml:space="preserve"><g><path d="M92.8,20.1H85v-5.3c0-1.9-1.6-3.5-3.5-3.5h-8.3V6c0-1.9-1.6-3.5-3.5-3.5H23c-0.9,0-1.8,0.4-2.5,1L4.7,19.4   c-0.7,0.7-1,1.6-1,2.5V94c0,1.9,1.6,3.5,3.5,3.5h62.5c1.9,0,3.5-1.6,3.5-3.5v-5.3h8.3c1.9,0,3.5-1.6,3.5-3.5v-5.3h7.8   c1.9,0,3.5-1.6,3.5-3.5V23.6C96.3,21.7,94.7,20.1,92.8,20.1z M66.1,90.5H10.7V25.4H23c1.9,0,3.5-1.6,3.5-3.5V9.5h39.6V90.5z    M77.9,81.7h-4.8V18.3h4.8V81.7z M89.3,72.9H85V27.1h4.3V72.9z"/><path d="M21.3,61c-1.9,0-3.5,1.6-3.5,3.5v15.6c0,1.9,1.6,3.5,3.5,3.5c1.9,0,3.5-1.6,3.5-3.5V64.5C24.8,62.6,23.2,61,21.3,61z"/><path d="M32.7,83.6c1.9,0,3.5-1.6,3.5-3.5V39.6c0-1.9-1.6-3.5-3.5-3.5c-1.9,0-3.5,1.6-3.5,3.5v40.5C29.2,82.1,30.8,83.6,32.7,83.6z   "/><path d="M44.1,83.6c1.9,0,3.5-1.6,3.5-3.5V47.6c0-1.9-1.6-3.5-3.5-3.5c-1.9,0-3.5,1.6-3.5,3.5v32.5C40.6,82.1,42.2,83.6,44.1,83.6z   "/><path d="M55.6,83.6c1.9,0,3.5-1.6,3.5-3.5V25.4c0-1.9-1.6-3.5-3.5-3.5c-1.9,0-3.5,1.6-3.5,3.5v54.8C52.1,82.1,53.6,83.6,55.6,83.6z   "/></g></svg>