<svg id="Layer_1" data-name="Layer 1" xmlns="http://www.w3.org/2000/svg" viewBox="0 0 173 173"><defs><style>.cls-1{fill:#fff;}.cls-2,.cls-4,.cls-5{fill:none;}.cls-3{fill:#f2f2f2;}.cls-4,.cls-5{stroke:#fff;stroke-width:2px;}.cls-4{stroke-miterlimit:10;}.cls-5{stroke-linejoin:bevel;}</style></defs><title>affiliate landing page</title><path class="cls-1" d="M146,118.3a1.84,1.84,0,0,0-.56-1.36,4.88,4.88,0,0,0-1.86-1,6.35,6.35,0,0,1-2.71-1.45,3.26,3.26,0,0,1-.91-2.41,3.41,3.41,0,0,1,.84-2.38,3.64,3.64,0,0,1,2.32-1.1v-2h1.4v2a3.37,3.37,0,0,1,2.29,1.22,4.21,4.21,0,0,1,.82,2.73h-1.73a2.87,2.87,0,0,0-.56-1.83,1.86,1.86,0,0,0-1.54-.7,1.87,1.87,0,0,0-2.09,2,1.88,1.88,0,0,0,.54,1.39,5.31,5.31,0,0,0,1.94,1,6.59,6.59,0,0,1,2.68,1.46,3.17,3.17,0,0,1,.88,2.37,3.28,3.28,0,0,1-.91,2.42,4.05,4.05,0,0,1-2.51,1.06v1.7H143v-1.69a4,4,0,0,1-2.5-1.11,3.62,3.62,0,0,1-.94-2.79l0,0h1.68a2.43,2.43,0,0,0,.69,2,2.57,2.57,0,0,0,1.69.58,2.63,2.63,0,0,0,1.78-.55A1.85,1.85,0,0,0,146,118.3Z"/><path class="cls-2" d="M150.34,105.16c.06.08,6.36,8.27,6.49,14.34a10.56,10.56,0,0,1-6.43,9.4c-1.6.6-5.79.91-9.88.92,4.09,0,8.28-.32,9.88-.92a10.55,10.55,0,0,0,6.43-9.4c-.13-6.07-6.43-14.26-6.49-14.34l-7.48-10.73a5.08,5.08,0,0,1-.27-.43h0c.09.14.18.29.28.43Z"/><path class="cls-2" d="M142.61,79.11a1.82,1.82,0,0,1,1.28-.49h0a1.82,1.82,0,0,0-1.29.49,3.73,3.73,0,0,1-2.43.87h0A3.71,3.71,0,0,0,142.61,79.11Z"/><path class="cls-2" d="M136.45,78.62h0a1.82,1.82,0,0,0-1.29.49,3.81,3.81,0,0,1-2.23.86h0a3.82,3.82,0,0,0,2.26-.86A1.79,1.79,0,0,1,136.45,78.62Z"/><path class="cls-2" d="M136.52,129.73h-.05c-1.12.06-2.33.08-3.55.09h0c1.22,0,2.43,0,3.55-.09Z"/><path class="cls-3" d="M145,94h0l7,10c.25.31,6.73,8.75,6.87,15.46a12.48,12.48,0,0,1-7.7,11.28c-2,.76-6.72,1-10.81,1h-7.36v-2c1.22,0,2.43,0,3.55-.09h.1c1.24.06,2.59.09,4,.09,4.09,0,8.28-.32,9.88-.92a10.55,10.55,0,0,0,6.43-9.4c-.13-6.07-6.43-14.26-6.49-14.34l-7.48-10.73a8.34,8.34,0,0,1-1.1-6h1.92A6.79,6.79,0,0,0,145,94Z"/><path class="cls-3" d="M145.85,89V87.17H144a23.28,23.28,0,0,1,4.9-7.6l-.79-.75-1.77-1.3a3.87,3.87,0,0,0-4.89,0,1.92,1.92,0,0,1-2.56,0,3.86,3.86,0,0,0-4.88,0,1.88,1.88,0,0,1-1.07.48v2a3.81,3.81,0,0,0,2.23-.86,1.82,1.82,0,0,1,1.28-.49h0a1.79,1.79,0,0,1,1.27.49,3.84,3.84,0,0,0,2.43.87,3.73,3.73,0,0,0,2.43-.87,1.82,1.82,0,0,1,1.28-.49h0a1.82,1.82,0,0,1,1.28.49,4.46,4.46,0,0,0,1,.59,21.76,21.76,0,0,0-4.25,7.47h-9V89Z"/><polygon class="cls-4" points="92.66 64.31 62.78 59.17 62.35 76.35 92.04 82.59 92.66 64.31"/><polygon class="cls-4" points="90.64 101.83 63.44 94.62 63.23 113.5 90.53 120.93 90.64 101.83"/><polygon class="cls-5" points="60.08 58.64 62.77 59.12 75.33 55.68 47.72 50.58 36.8 54.67 60.07 58.64 60.08 58.64"/><polygon class="cls-5" points="62.78 59.17 37.22 54.73 37.31 71.12 62.35 76.39 62.78 59.17"/><polygon class="cls-4" points="51.9 74.21 37.31 71.12 37.29 87.75 51.88 91.64 51.9 74.21"/><polygon class="cls-4" points="92.66 64.31 103.96 60.68 75.47 55.7 62.78 59.17 92.66 64.31"/><polygon class="cls-4" points="63.44 94.62 37.29 87.75 37.16 106.13 63.23 113.5 63.44 94.62"/><polygon class="cls-4" points="51.87 91.53 75.93 97.98 75.82 79.18 51.88 74.09 51.87 91.53"/><polygon class="cls-4" points="106.19 85.6 75.8 79.16 75.93 97.98 106 105.85 106.19 85.6"/><polygon class="cls-5" points="103.96 60.68 92.66 64.31 121.86 69.82 134.09 66.19 103.96 60.68"/><polygon class="cls-4" points="76.25 136.38 105.83 144.75 105.91 124.86 76.16 117.09 76.25 136.38"/><polygon class="cls-4" points="51.33 110.19 51.43 128.56 76.25 136.38 76.16 117.09 51.33 110.19"/><polygon class="cls-4" points="37.16 106.13 37.16 124.25 51.37 128.54 51.27 110.19 37.16 106.13"/><polygon class="cls-4" points="105.91 124.86 105.84 144.75 121.62 149.26 134.01 139.97 134.07 120.83 121 128.62 105.91 124.86"/><polygon class="cls-4" points="106.19 85.6 105.97 105.76 120.99 109.68 134.05 103.07 134.09 83.68 120.99 88.99 106.19 85.6"/><polygon class="cls-4" points="90.68 101.85 90.53 120.93 121 128.62 134.07 120.83 134.05 103.07 120.99 109.68 90.68 101.85"/><polygon class="cls-5" points="92.66 64.31 92.04 82.59 120.99 88.99 134.09 83.68 134.09 66.19 121.86 69.82 92.66 64.31"/><polygon class="cls-1" points="37.63 55.79 36.21 55.79 36.21 53.83 37.93 53.18 37.63 55.79"/><polygon class="cls-1" points="135.09 65.33 135.09 66.77 133 66.63 132.47 64.88 135.09 65.33"/></svg>