<svg id="Layer_1" data-name="Layer 1" xmlns="http://www.w3.org/2000/svg" viewBox="0 0 173 173"><defs><style>.cls-1{fill:none;stroke:#fff;stroke-miterlimit:10;stroke-width:2px;}.cls-2{fill:#fff;}</style></defs><title>affiliate landing page</title><path class="cls-1" d="M91.33,106,79.71,94.34a2,2,0,0,0-1.46-.6H57.63a2.07,2.07,0,0,0-2.07-2.07H32.88V128.8H55.56a2.07,2.07,0,0,0,2.07-2.06h5.7l22,11a6.67,6.67,0,0,0,3,.72,6.78,6.78,0,0,0,3.4-.92l45-26.25a6.78,6.78,0,0,0,3.34-5.82,6.73,6.73,0,0,0-7.89-6.64Zm-16.6,5.73L85.4,122.36a7.89,7.89,0,0,0,13.47-5.58c0-1.46-7.54-10.82-7.54-10.82"/><path class="cls-1" d="M69.49,41.51a15.61,15.61,0,0,1,22.9,0l1.15,1.22a1.73,1.73,0,0,0,2.42,0l1.15-1.22a15.61,15.61,0,0,1,22.9,0,17.93,17.93,0,0,1,0,24.39L94.75,92.51,69.49,65.9A17.91,17.91,0,0,1,69.49,41.51Z"/><line class="cls-1" x1="54.99" y1="90.86" x2="54.99" y2="128.8"/><path class="cls-2" d="M81,55.06a4.18,4.18,0,0,1,1.41-3.2,5.9,5.9,0,0,1,7.39,0,4.18,4.18,0,0,1,1.41,3.2v1.15a4.2,4.2,0,0,1-1.4,3.18,5.18,5.18,0,0,1-3.66,1.29,5.32,5.32,0,0,1-3.73-1.29A4.15,4.15,0,0,1,81,56.21Zm1.72,1.15a3.13,3.13,0,0,0,.89,2.24,3.35,3.35,0,0,0,2.54.93,3.23,3.23,0,0,0,2.47-.93,3.15,3.15,0,0,0,.87-2.24V55.06a3.13,3.13,0,0,0-3.38-3.2,3.26,3.26,0,0,0-2.5.94,3.19,3.19,0,0,0-.89,2.26Zm4,14.62-1.33-.72,12.75-17,1.33.72Zm7.46-3.53a4.14,4.14,0,0,1,1.41-3.18,5.92,5.92,0,0,1,7.4,0,4.14,4.14,0,0,1,1.41,3.18v1.16a4.21,4.21,0,0,1-1.4,3.2A5.24,5.24,0,0,1,99.26,73a5.32,5.32,0,0,1-3.73-1.29,4.16,4.16,0,0,1-1.42-3.2Zm1.74,1.16a3.15,3.15,0,0,0,.88,2.26,3.31,3.31,0,0,0,2.53.93,3.09,3.09,0,0,0,3.33-3.19V67.3a3.12,3.12,0,0,0-.88-2.27,3.86,3.86,0,0,0-5,0,3.16,3.16,0,0,0-.88,2.27Z"/></svg>