<svg id="Layer_1" data-name="Layer 1" xmlns="http://www.w3.org/2000/svg" viewBox="0 0 173 173"><defs><style>.cls-1{fill:none;}.cls-1,.cls-3{stroke:#fff;stroke-miterlimit:10;stroke-width:2px;}.cls-2,.cls-3{fill:#fff;}</style></defs><title>affiliate landing page</title><path class="cls-1" d="M65,59.6v41.58H54V59.6Zm17,9v32.6H71V68.58Zm17.17,8v24.55h-11V76.63Zm16.77,12.48v12.07H105.45V89.11Zm-31,44.07V120.7H34.34a4,4,0,0,1-4-4V43.82a4,4,0,0,1,4-4H135.52a4,4,0,0,1,4,4V116c0,3.52-1.13,4.71-4.7,4.71H84.93v12.48"/><polyline class="cls-1" points="125.59 101.18 45.5 101.18 45.5 48.47"/><line class="cls-1" x1="30.34" y1="108.8" x2="139.52" y2="108.8"/><circle class="cls-2" cx="85.03" cy="115.11" r="1.44"/><line class="cls-3" x1="73.26" y1="120.7" x2="96.6" y2="120.7"/><line class="cls-3" x1="69.5" y1="133.18" x2="100.47" y2="133.18"/></svg>