<svg id="Layer_1" data-name="Layer 1" xmlns="http://www.w3.org/2000/svg" viewBox="0 0 173 173"><defs><style>.cls-1{fill:none;stroke:#fff;stroke-miterlimit:10;stroke-width:2px;}</style></defs><title>affiliate landing page</title><path class="cls-1" d="M54.07,58.45V49.13H40.68V68.64h91.64V49.13h-13.5v9.32H106.09V49.13H92.81v9.32H80.08V49.13H66.8v9.32Z"/><rect class="cls-1" x="40.68" y="68.64" width="91.64" height="63.13"/><path class="cls-1" d="M58.29,58.45V45.29a1.75,1.75,0,0,1,1.59-1.87h1.43a1.75,1.75,0,0,1,1.59,1.87V58.45"/><path class="cls-1" d="M110.3,58.45V45.29a1.72,1.72,0,0,1,1.49-1.87h1.35a1.72,1.72,0,0,1,1.49,1.87V58.45"/><path class="cls-1" d="M84.25,58.45V45.29a1.73,1.73,0,0,1,1.54-1.87h1.38a1.73,1.73,0,0,1,1.54,1.87V58.45"/><path class="cls-1" d="M62.2,84.26l12-2.15V118"/><path class="cls-1" d="M109.22,82.21H92L90.74,98.79a30.89,30.89,0,0,1,5.34-3.07,12.71,12.71,0,0,1,4.37-.73,9.12,9.12,0,0,1,7.33,3.06,12.14,12.14,0,0,1,2.79,8.4,13,13,0,0,1-2.7,8.63q-2.7,3.23-8.13,3.22a10.44,10.44,0,0,1-7.33-2.45c-1.22-1.13-2.82-2.85-2.82-5.31l0-.15"/></svg>