<svg id="Layer_1" data-name="Layer 1" xmlns="http://www.w3.org/2000/svg" viewBox="0 0 173 173"><defs><style>.cls-1{fill:none;stroke:#fff;stroke-miterlimit:10;stroke-width:2px;}.cls-2{fill:#fff;}</style></defs><title>affiliate landing page</title><path class="cls-1" d="M46.73,69.84a3.09,3.09,0,0,0-3.1,3.09v57.42a3,3,0,0,0,3,3H123.2a3,3,0,0,0,3-3V112h8.59a2.06,2.06,0,0,0,2.06-2.06V93.31a2.06,2.06,0,0,0-2.06-2.06h-8.59V72.87a3,3,0,0,0-3-3ZM126.22,112H111.51a2.84,2.84,0,0,1-2.37-2.76V94a2.85,2.85,0,0,1,2.37-2.77H126.3"/><path class="cls-2" d="M116.84,99.33a2.27,2.27,0,1,1-2.26,2.27A2.27,2.27,0,0,1,116.84,99.33Z"/><polyline class="cls-1" points="116.27 69.84 114.51 58.91 54.01 69.84"/><polyline class="cls-1" points="51.43 69.84 102.74 49.91 105.23 60.59"/></svg>