<svg id="Layer_1" data-name="Layer 1" xmlns="http://www.w3.org/2000/svg" viewBox="0 0 173 173"><defs><style>.cls-1{fill:none;stroke:#fff;stroke-miterlimit:10;stroke-width:2px;}</style></defs><title>affiliate landing page</title><path class="cls-1" d="M132,95.21c0-11-9.91-19.91-22-20.12v40.25C122.11,115.13,132,106.21,132,95.21Z"/><path class="cls-1" d="M61.41,75.09C49,75.09,39,84.11,39,95.23s10.06,20.15,22.43,20.15l.47,0V75.11Z"/><ellipse class="cls-1" cx="89.78" cy="133.57" rx="7.34" ry="4.34"/><path class="cls-1" d="M117.29,114v9.29A10.31,10.31,0,0,1,107,133.57H97.12"/><path class="cls-1" d="M49.27,78c0-27.4,16.52-39.62,36.89-39.62s36.9,13.06,36.9,40.45"/><line class="cls-1" x1="57.92" y1="75.34" x2="57.92" y2="114.99"/><line class="cls-1" x1="114.01" y1="75.49" x2="114.01" y2="114.99"/></svg>