<svg id="Layer_1" data-name="Layer 1" xmlns="http://www.w3.org/2000/svg" xmlns:xlink="http://www.w3.org/1999/xlink" viewBox="0 0 173 173"><defs><style>.cls-1,.cls-2{fill:none;stroke:#fff;stroke-width:2px;}.cls-1{stroke-miterlimit:10;}.cls-2{stroke-linecap:round;stroke-linejoin:round;}.cls-3{clip-path:url(#clip-path);}</style><clipPath id="clip-path"><path class="cls-1" d="M117.57,82A30.07,30.07,0,1,1,87.5,51.89,30.07,30.07,0,0,1,117.57,82Z"/></clipPath></defs><title>affiliate landing page</title><rect class="cls-1" x="27.35" y="40.61" width="120.28" height="109.01"/><rect class="cls-1" x="27.35" y="29.34" width="120.28" height="11.28"/><rect class="cls-2" x="136.36" y="29.34" width="11.28" height="11.28"/><rect class="cls-2" x="125.08" y="29.34" width="11.28" height="11.28"/><rect class="cls-2" x="113.81" y="29.34" width="11.28" height="11.28"/><rect class="cls-1" x="57.43" y="119.55" width="60.14" height="5.94"/><rect class="cls-1" x="68.7" y="132.7" width="37.59" height="5.94"/><g class="cls-3"><path class="cls-1" d="M109.1,110.83c0-13-8.75-17.25-16.08-19.09l-5.45,4.4-4.75-4.4c-8.9,2.27-16.6,8.9-16.6,18.41v3.27H109.1Z"/><path class="cls-1" d="M97.78,82c-2,4.47-5.52,8-10.15,8s-8.23-3.49-10.16-8a14.1,14.1,0,0,1-.83-4.7c0-6.77,4.91-12.23,11-12.23s11,5.53,11,12.3A13.27,13.27,0,0,1,97.78,82Z"/></g><path class="cls-1" d="M117.57,82A30.07,30.07,0,1,1,87.5,51.89,30.07,30.07,0,0,1,117.57,82Z"/><path class="cls-2" d="M117.57,82A30.07,30.07,0,1,1,87.5,51.89,30.07,30.07,0,0,1,117.57,82Z"/></svg>