<svg id="Layer_1" data-name="Layer 1" xmlns="http://www.w3.org/2000/svg" viewBox="0 0 173 173"><defs><style>.cls-1{fill:#fff;}</style></defs><title>affiliate landing page</title><path class="cls-1" d="M87.5,42.5a48.06,48.06,0,1,0,48.06,48.06A48.11,48.11,0,0,0,87.5,42.5Zm46,45.5.08,1.57H112l0-1.45a87.81,87.81,0,0,0-2.4-18.65l-.27-1.11,1-.54a48,48,0,0,0,10.11-7.28l1.13-1.06,1,1.18A45.61,45.61,0,0,1,133.5,88Zm-27-22,.39,1.27-1.23.53a45.84,45.84,0,0,1-15.55,3.62l-1.56.09V44.39l1.86.49C97,46.62,102.82,54.33,106.45,66Zm-.67,3.9,1.61-.66.39,1.69A85.62,85.62,0,0,1,109.92,88l0,1.53H88.5v-16l1.4-.07A48.33,48.33,0,0,0,105.78,69.94ZM110,91.56l0,1.52a85.87,85.87,0,0,1-2.13,17l-.39,1.7-1.62-.66a47.85,47.85,0,0,0-15.88-3.53l-1.4-.07v-16Zm-3.11,22.22-.39,1.28c-3.63,11.72-9.5,19.45-16.1,21.19l-1.86.49V109.55l1.56.09a45.68,45.68,0,0,1,15.56,3.62ZM119,59.12a46.32,46.32,0,0,1-8.66,6.39l-1.59.9-.56-1.73a45,45,0,0,0-8.25-15.63l-3.49-4,5.06,1.61A46.36,46.36,0,0,1,119,57L120.13,58Zm0,65a46.36,46.36,0,0,1-17.49,10.3l-5.06,1.61,3.49-4a45.08,45.08,0,0,0,8.26-15.64l.56-1.74,1.58.91A46.49,46.49,0,0,1,119,122l1.16,1.08Zm-9.72-11.42.28-1.12A88.18,88.18,0,0,0,111.92,93l0-1.44h21.63l-.08,1.56a45.62,45.62,0,0,1-11,27.35l-1,1.18-1.13-1.07a48.37,48.37,0,0,0-10.11-7.3Zm-40.71,2.32-.39-1.28,1.23-.52a45.68,45.68,0,0,1,15.56-3.62l1.56-.09v27.19l-1.86-.49C78,134.5,72.17,126.78,68.54,115.06Zm.68-3.9-1.62.66-.39-1.7a86.06,86.06,0,0,1-2.13-17l0-1.52H86.5v16l-1.4.07A47.85,47.85,0,0,0,69.22,111.16ZM65,89.57l0-1.53A85.62,85.62,0,0,1,67.22,71l.39-1.69,1.61.66A48.07,48.07,0,0,0,85.1,73.47l1.4.07v16Zm3.12-22.26L68.55,66C72.18,54.33,78,46.62,84.65,44.88l1.85-.49V71.55l-1.56-.09a45.84,45.84,0,0,1-15.55-3.62Zm6.93-18.26a45,45,0,0,0-8.25,15.63l-.56,1.73-1.59-.9A46,46,0,0,1,56,59.12L54.88,58,56,57a46.36,46.36,0,0,1,17.49-10.3l5-1.61ZM65.75,68.36l-.27,1.11a87.89,87.89,0,0,0-2.4,18.65l0,1.45H41.42L41.5,88a45.54,45.54,0,0,1,11-27.34l1-1.18,1.14,1.06a47.65,47.65,0,0,0,10.1,7.28ZM41.5,93.12l-.08-1.56H63.05l0,1.44a88.18,88.18,0,0,0,2.39,18.62l.28,1.12-1,.54a48.74,48.74,0,0,0-10.11,7.3l-1.13,1.07-1-1.18A45.64,45.64,0,0,1,41.5,93.12ZM56,122a46.49,46.49,0,0,1,8.66-6.4l1.58-.91.56,1.74a45.08,45.08,0,0,0,8.26,15.64l3.49,4-5.06-1.61A46.47,46.47,0,0,1,56,124.17l-1.15-1.09Z"/></svg>