<svg id="Layer_1" data-name="Layer 1" xmlns="http://www.w3.org/2000/svg" viewBox="0 0 213.61 173"><defs><style>.cls-1,.cls-4,.cls-5{fill:none;}.cls-1,.cls-3,.cls-4,.cls-5{stroke:#fff;stroke-width:2px;}.cls-1,.cls-3{stroke-miterlimit:10;}.cls-2{fill:#fff;}.cls-3{fill:#ff8f3b;}.cls-4{stroke-linecap:round;stroke-linejoin:round;}</style></defs><title>affiliate landing page</title><rect class="cls-1" x="42.98" y="57.16" width="128.49" height="81.31" rx="2.16" ry="2.16"/><line class="cls-1" x1="42.98" y1="126.58" x2="171.47" y2="126.58"/><line class="cls-1" x1="107.22" y1="138.02" x2="107.22" y2="153.95"/><line class="cls-1" x1="90.52" y1="153.95" x2="123.54" y2="153.95"/><circle class="cls-2" cx="107.22" cy="132.36" r="1.17"/><path class="cls-3" d="M133.9,96.17a34,34,0,0,1-14.5-1.53l-11.5,7.7,2.76-12.68C104.32,86.36,99.83,75.72,99,69.21a31.19,31.19,0,1,1,34.91,27Z"/><rect class="cls-1" x="111.19" y="49.65" width="38.22" height="29.91"/><line class="cls-4" x1="111.19" y1="55.1" x2="149.41" y2="55.1"/><rect class="cls-1" x="116.98" y="62.75" width="8.02" height="9.69"/><line class="cls-1" x1="129.45" y1="67.44" x2="137.5" y2="67.44"/><line class="cls-1" x1="129.45" y1="72.29" x2="142.93" y2="72.29"/><line class="cls-1" x1="129.45" y1="62.91" x2="144.82" y2="62.91"/><rect class="cls-3" x="26.43" y="36.82" width="44.97" height="34.42" rx="2.88" ry="2.88"/><polygon class="cls-1" points="42.46 47.25 42.46 60.81 55.37 54.03 42.46 47.25"/><path class="cls-3" d="M166.2,99.65a24.1,24.1,0,0,0,2,8.39l-5.8,8.22,10.92-2a21.43,21.43,0,0,0,11.33,3.82A18.44,18.44,0,1,0,166.2,99.65Z"/><path class="cls-2" d="M193.55,97.35V95.43h-3.83l1.19-5.2h-2.16l-1.2,5.2H183.1l1.2-5.2h-2.17L181,95.43h-5v1.92h4.55l-1.2,5.3h-4.54v1.9h4.09l-1.16,5.13h2.16l1.17-5.13h4.43l-1.18,5.13h2.16l1.18-5.13h4.75v-1.9h-4.32l1.22-5.3Zm-10.89,0h4.45l-1.22,5.3h-4.42Z"/><path class="cls-3" d="M48.59,101.59a25.51,25.51,0,0,1-2.11,8.89l6.15,8.72-11.57-2.11a22.77,22.77,0,0,1-12,4,19.54,19.54,0,1,1,19.54-19.54Z"/><path class="cls-5" d="M26,97.67v-2a5.53,5.53,0,0,1,1.37-4,5.06,5.06,0,0,1,3.82-1.41,6,6,0,0,1,1,.08c.35,0,.73.13,1.16.23M26,113.87V97.67"/><line class="cls-5" x1="21.92" y1="99.65" x2="30.1" y2="99.65"/><line class="cls-4" x1="144.82" y1="49.65" x2="144.82" y2="55.1"/><line class="cls-4" x1="140.04" y1="49.65" x2="140.04" y2="55.1"/><line class="cls-4" x1="135.46" y1="49.65" x2="135.46" y2="55.1"/></svg>