<svg id="Layer_1" data-name="Layer 1" xmlns="http://www.w3.org/2000/svg" xmlns:xlink="http://www.w3.org/1999/xlink" viewBox="0 0 173 173"><defs><style>.cls-1,.cls-2{fill:none;}.cls-2{stroke:#fff;stroke-miterlimit:10;stroke-width:2px;}.cls-3{clip-path:url(#clip-path);}</style><clipPath id="clip-path"><path class="cls-1" d="M129.76,85.36a44.38,44.38,0,0,1-28.45,41.43c-4.94,1.9-8.6-14.71-14.21-14.71s-12.85,16.57-17.86,14.61a44.37,44.37,0,1,1,60.52-41.33Z"/></clipPath></defs><title>affiliate landing page</title><ellipse class="cls-2" cx="85.8" cy="68.63" rx="15.31" ry="16.36"/><g class="cls-3"><path class="cls-2" d="M112.19,104.42C110,95.7,101.26,89.59,92.1,87.3l-6.82,5.5-5.94-5.5c-11.12,2.84-20.74,11.12-20.74,23v19h53.59Z"/></g><path class="cls-2" d="M68.84,126.54a44.37,44.37,0,1,1,32.47.25"/><circle class="cls-2" cx="85.28" cy="125.56" r="16.08"/><path class="cls-2" d="M95,122.53,79.92,132.6,75,125.45"/></svg>