<svg id="Layer_1" data-name="Layer 1" xmlns="http://www.w3.org/2000/svg" viewBox="0 0 173 173"><defs><style>.cls-1{fill:none;stroke:#fff;stroke-miterlimit:10;stroke-width:2px;}.cls-2{fill:#fff;}</style></defs><title>affiliate landing page</title><circle class="cls-1" cx="80.19" cy="87.65" r="31.21"/><circle class="cls-1" cx="45.11" cy="37.04" r="8.58"/><line class="cls-1" x1="107.05" y1="49.48" x2="96.1" y2="60.96"/><line class="cls-1" x1="49.7" y1="43.91" x2="64.01" y2="60.96"/><line class="cls-1" x1="29.84" y1="87.24" x2="48.88" y2="87.24"/><line class="cls-1" x1="142" y1="86.4" x2="111.42" y2="86.4"/><line class="cls-1" x1="40.5" y1="133.24" x2="60.8" y2="112.05"/><line class="cls-1" x1="127.47" y1="132.72" x2="103.17" y2="109.18"/><path class="cls-2" d="M86.14,90.12A19,19,0,0,0,80.08,87c-2.76-.9-4.6-1.82-5.47-2.73a5,5,0,0,1-1.27-3.63,5.24,5.24,0,0,1,1.6-3.85,6.42,6.42,0,0,1,4.71-1.6,5.92,5.92,0,0,1,4.68,1.85A7,7,0,0,1,86,81.89v.5h1.73l.13-.31.07-.27a8.62,8.62,0,0,0-2-6.14,7.79,7.79,0,0,0-5.24-2.42v-3.6h-2v3.59a8.3,8.3,0,0,0-5.22,2.14,7.07,7.07,0,0,0-2.15,5.31,6.56,6.56,0,0,0,2,5.18,17.75,17.75,0,0,0,6.11,3.07,16.32,16.32,0,0,1,5.39,2.8,4.66,4.66,0,0,1,1.35,3.56,5,5,0,0,1-1.73,3.83,6.57,6.57,0,0,1-4.65,1.62,8.66,8.66,0,0,1-5.23-1.6c-1.42-1-2.11-2.71-2.11-5.09v-.5H70.71l-.12.35-.06.25c-.07,2.88.78,5,2.52,6.43a10.23,10.23,0,0,0,5.84,2.15v3.59h2v-3.62a8.55,8.55,0,0,0,5.13-2.15,7,7,0,0,0,2.14-5.3A6.41,6.41,0,0,0,86.14,90.12Z"/><circle class="cls-1" cx="112.7" cy="42.81" r="8.58"/><circle class="cls-1" cx="150.57" cy="86.4" r="8.58"/><circle class="cls-1" cx="134.1" cy="138.23" r="8.58"/><circle class="cls-1" cx="35.37" cy="139.75" r="8.58"/><circle class="cls-1" cx="21.26" cy="87.24" r="8.58"/><circle class="cls-2" cx="112.85" cy="42.81" r="1.58"/><circle class="cls-2" cx="150.57" cy="86.4" r="1.58"/><circle class="cls-2" cx="134.1" cy="138.23" r="1.58"/><circle class="cls-2" cx="35.37" cy="139.75" r="1.58"/><circle class="cls-2" cx="21.26" cy="87.24" r="1.58"/><circle class="cls-2" cx="45.11" cy="37.04" r="1.58"/></svg>