<svg xmlns="http://www.w3.org/2000/svg" xmlns:xlink="http://www.w3.org/1999/xlink" version="1.1" x="0px" y="0px" viewBox="0 0 100 100" enable-background="new 0 0 100 100" fill="#2a3052" xml:space="preserve"><path d="M77.449,73.23c-4.098,0-7.432,3.332-7.432,7.432c0,4.098,3.334,7.432,7.432,7.432c4.1,0,7.432-3.334,7.432-7.432  C84.881,76.562,81.549,73.23,77.449,73.23z"/><path d="M43.283,40.457l19.031,0.256l32.212-18.781L84.667,5L52.462,23.785L43.283,40.457z M88.591,20.367L62.524,35.566  l-1.562-2.688l26.005-15.297L88.591,20.367z M83.101,10.939l1.684,2.891L58.778,29.127l-1.737-2.984L83.101,10.939z M54.124,29.764  l3.812,6.549l-3.112-0.043l-2.311-3.578L54.124,29.764z"/><path d="M31.775,41.459c-14.786,0-26.771,11.986-26.771,26.771S16.989,95,31.775,95c14.785,0,26.771-11.984,26.771-26.77  S46.561,41.459,31.775,41.459z M31.775,46.576c3.517,0,6.369,2.852,6.369,6.369s-2.853,6.369-6.369,6.369s-6.368-2.852-6.368-6.369  S28.259,46.576,31.775,46.576z M11.182,61.537c1.085-3.344,4.681-5.176,8.025-4.088s5.177,4.678,4.087,8.025  c-1.085,3.346-4.679,5.174-8.023,4.09C11.926,68.477,10.094,64.883,11.182,61.537z M27.94,84.334  c-2.064,2.846-6.05,3.479-8.895,1.412c-2.845-2.068-3.477-6.051-1.407-8.896c2.064-2.848,6.05-3.479,8.895-1.41  S30.01,81.49,27.94,84.334z M25.407,68.23c0-3.518,2.852-6.367,6.368-6.367s6.369,2.85,6.369,6.367c0,3.516-2.853,6.367-6.369,6.367  S25.407,71.746,25.407,68.23z M44.502,85.744c-2.847,2.068-6.827,1.439-8.896-1.408c-2.069-2.846-1.438-6.828,1.409-8.896  c2.848-2.068,6.828-1.436,8.897,1.41C47.977,79.691,47.349,83.678,44.502,85.744z M48.281,69.559  c-3.349,1.088-6.939-0.742-8.027-4.088c-1.087-3.346,0.744-6.938,4.089-8.023c3.343-1.088,6.938,0.742,8.025,4.086  C53.454,64.879,51.625,68.475,48.281,69.559z"/><path d="M90.653,67.096h-1.085v-1.225c0-1.021-0.829-1.854-1.851-1.854H80.93c-1.023,0-1.853,0.832-1.853,1.854v1.225H60.659  c0.015,0.377,0.057,0.75,0.057,1.135c0,6.107-1.911,11.77-5.155,16.443v4.834c0,2.607,1.946,4.721,4.342,4.721h30.751  c2.397,0,4.342-2.113,4.342-4.721V71.814C94.995,69.207,93.051,67.096,90.653,67.096z M77.449,92.059  c-6.283,0-11.396-5.113-11.396-11.396c0-6.285,5.112-11.395,11.396-11.395s11.396,5.109,11.396,11.395  C88.846,86.945,83.732,92.059,77.449,92.059z"/><path d="M29.255,22.76h20.578l5.97-3.48H29.255c-1.921,0-3.48,1.557-3.48,3.48v17.166c1.136-0.242,2.298-0.408,3.48-0.51V22.76z"/><polygon points="74.494,64.926 74.494,36.08 71.014,38.107 71.014,64.926 "/><path d="M65.509,60.584v-3.615h-7.073c0.491,1.162,0.882,2.377,1.221,3.615H65.509z"/><path d="M65.509,47.018H51.397c1.2,1.111,2.305,2.318,3.303,3.617h10.809V47.018z"/></svg>