<svg xmlns="http://www.w3.org/2000/svg" xmlns:xlink="http://www.w3.org/1999/xlink" version="1.0" x="0px" y="0px" viewBox="0 0 100 100" enable-background="new 0 0 100 100" fill="#2a3052" xml:space="preserve"><path d="M5,27.9879551v47.0443115h87.7733994V27.9879551H5z M51.2141991,65.038353v4.5217743h-5.0561676v-4.1254349  c-3.1038857-0.1267319-6.1184616-0.9713135-7.8483658-1.8614655l1.463459-6.1623688  c1.9945259,0.9729767,4.7444801,1.9491196,7.7605515,1.9491196c2.2626343,0,3.8170738-0.6220436,3.8170738-2.0384369  c0-1.3739777-1.2929802-2.2187233-4.6145859-3.2386055c-4.7913818-1.5527763-8.2071228-3.8154106-8.2071228-8.296608  c0-4.0329552,2.7936974-7.2278214,7.8531914-8.2495346v-4.0768661h5.0545044v3.7227669  c3.0616417,0.1365509,5.1406593,0.7552681,6.6967621,1.4228821l-1.4195518,5.897583  c-1.1971817-0.4873199-3.3249283-1.5073662-6.6967621-1.5073662c-2.6198921,0-3.4174042,0.9323959-3.4174042,1.9053764  c0,1.1091957,1.5121956,1.9539413,5.2349625,3.2808533c5.5872307,1.8207169,7.628994,4.3481369,7.628994,8.3842545  C59.4637375,60.6918755,56.5368156,64.1092834,51.2141991,65.038353z"/><polygon points="14.45786,16.7434711 12.2782202,24.2846451 40.5965805,24.2846451 "/><polygon points="84.5938873,86.3579102 86.7703629,78.8167419 58.4534988,78.8167419 "/></svg>